<svg width="1343" height="72" viewBox="0 0 1343 72" fill="none" xmlns="http://www.w3.org/2000/svg">
<rect x="-186.976" y="0.5" width="197.068" height="71" rx="9.5" stroke="#A1AEBF"/>
<g clip-path="url(#clip0_8_110)">
<path d="M113.901 27.5288H110.758V41.6212H119.46V38.8598H113.901V27.5288Z" fill="#0D0E14"/>
<path d="M119.76 36.8411C119.76 39.85 121.792 41.8496 124.859 41.8496C127.907 41.8496 129.939 39.85 129.939 36.8411C129.939 33.8321 127.907 31.8135 124.859 31.8135C121.792 31.8135 119.76 33.8321 119.76 36.8411ZM122.732 36.822C122.732 35.3938 123.575 34.4416 124.859 34.4416C126.124 34.4416 126.968 35.3938 126.968 36.822C126.968 38.2694 126.124 39.2216 124.859 39.2216C123.575 39.2216 122.732 38.2694 122.732 36.822Z" fill="#0D0E14"/>
<path d="M130.414 36.6889C130.414 39.5645 132.292 41.5069 134.957 41.5069C136.241 41.5069 137.353 41.0499 137.909 40.3072V41.6212C137.909 42.9352 137.084 43.8112 135.628 43.8112C134.324 43.8112 133.423 43.2018 133.366 42.1164H130.375C130.644 44.7254 132.676 46.4773 135.455 46.4773C138.733 46.4773 140.803 44.3635 140.803 41.0118V32.0994H138.139L137.985 33.0705C137.449 32.2898 136.318 31.7756 135.014 31.7756C132.331 31.7756 130.414 33.7752 130.414 36.6889ZM133.404 36.6127C133.404 35.2415 134.324 34.3274 135.494 34.3274C136.854 34.3274 137.851 35.2225 137.851 36.6127C137.851 38.0029 136.874 38.9551 135.513 38.9551C134.343 38.9551 133.404 38.0029 133.404 36.6127Z" fill="#0D0E14"/>
<path d="M141.663 36.8411C141.663 39.85 143.695 41.8496 146.763 41.8496C149.81 41.8496 151.842 39.85 151.842 36.8411C151.842 33.8321 149.81 31.8135 146.763 31.8135C143.695 31.8135 141.663 33.8321 141.663 36.8411ZM144.634 36.822C144.634 35.3938 145.478 34.4416 146.763 34.4416C148.027 34.4416 148.871 35.3938 148.871 36.822C148.871 38.2694 148.027 39.2216 146.763 39.2216C145.478 39.2216 144.634 38.2694 144.634 36.822Z" fill="#0D0E14"/>
<path d="M154.387 30.6139C155.307 30.6139 156.055 29.8712 156.055 28.9381C156.055 28.0049 155.307 27.2812 154.387 27.2812C153.448 27.2812 152.7 28.0049 152.7 28.9381C152.7 29.8712 153.448 30.6139 154.387 30.6139ZM152.892 41.6212H155.863V32.0993H152.892V41.6212Z" fill="#0D0E14"/>
<path d="M157.593 46.1917H160.507V40.6691C161.062 41.3927 162.328 41.8879 163.65 41.8879C166.506 41.8879 168.231 39.7169 168.155 36.708C168.078 33.6419 166.295 31.7947 163.631 31.7947C162.27 31.7947 160.986 32.385 160.449 33.2611L160.295 32.0994H157.593V46.1917ZM160.564 36.8603C160.564 35.4321 161.522 34.4799 162.902 34.4799C164.301 34.4799 165.183 35.4511 165.183 36.8603C165.183 38.2696 164.301 39.2408 162.902 39.2408C161.522 39.2408 160.564 38.2886 160.564 36.8603Z" fill="#0D0E14"/>
<path d="M168.469 38.6123C168.545 40.5358 170.079 41.8688 172.494 41.8688C174.814 41.8688 176.424 40.65 176.424 38.6885C176.424 37.2793 175.581 36.3461 174.008 35.9652L172.303 35.5463C171.69 35.394 171.306 35.2416 171.306 34.7464C171.306 34.2513 171.708 33.9275 172.303 33.9275C172.974 33.9275 173.414 34.3656 173.396 35.013H176.06C175.983 33.0325 174.469 31.7947 172.36 31.7947C170.233 31.7947 168.642 33.0516 168.642 34.9559C168.642 36.2318 169.351 37.2793 171.248 37.7744L172.935 38.2124C173.433 38.3457 173.644 38.5742 173.644 38.8979C173.644 39.3741 173.203 39.6788 172.456 39.6788C171.593 39.6788 171.133 39.2789 171.133 38.6123H168.469Z" fill="#0D0E14"/>
<path d="M180.942 41.8687C182.112 41.8687 183.281 41.3355 183.875 40.5547L184.067 41.6212H186.846V32.0994H183.894V37.0508C183.894 38.479 183.473 39.2597 182.112 39.2597C181.057 39.2597 180.367 38.7837 180.367 37.0127V32.0994H177.415V38.079C177.415 40.3453 178.681 41.8687 180.942 41.8687Z" fill="#0D0E14"/>
<path d="M191.528 41.6212V36.4223C191.528 34.8226 192.39 34.3655 193.234 34.3655C194.173 34.3655 194.786 34.9369 194.786 36.1176V41.6212H197.7V36.4223C197.7 34.8036 198.543 34.3465 199.387 34.3465C200.326 34.3465 200.958 34.9178 200.958 36.1176V41.6212H203.834V35.3939C203.834 33.2229 202.684 31.7756 200.211 31.7756C198.831 31.7756 197.7 32.4421 197.201 33.4705C196.626 32.4421 195.63 31.7756 194.038 31.7756C192.984 31.7756 192.007 32.2517 191.432 33.0134L191.317 32.0994H188.556V41.6212H191.528Z" fill="#0D0E14"/>
<path d="M54.5919 36.0001C54.5919 28.2957 60.8784 22.05 68.6333 22.05H87.0627C94.8176 22.05 101.104 28.2957 101.104 36.0001V49.9501H68.6333C60.8784 49.9501 54.5919 43.7045 54.5919 36.0001Z" fill="#0D0E14"/>
<path d="M87.0627 27.2812H68.6333C63.7865 27.2812 59.8574 31.1848 59.8574 36C59.8574 40.8153 63.7865 44.7188 68.6333 44.7188H87.0627C91.9095 44.7188 95.8386 40.8153 95.8386 36C95.8386 31.1848 91.9095 27.2812 87.0627 27.2812Z" fill="#4B5567"/>
<path d="M68.6333 40.3594C71.0567 40.3594 73.0213 38.4076 73.0213 36C73.0213 33.5924 71.0567 31.6406 68.6333 31.6406C66.2099 31.6406 64.2454 33.5924 64.2454 36C64.2454 38.4076 66.2099 40.3594 68.6333 40.3594Z" fill="#0D0E14"/>
<path d="M66.8782 35.128C67.3629 35.128 67.7558 34.7377 67.7558 34.2562C67.7558 33.7746 67.3629 33.3843 66.8782 33.3843C66.3935 33.3843 66.0006 33.7746 66.0006 34.2562C66.0006 34.7377 66.3935 35.128 66.8782 35.128Z" fill="white"/>
<path d="M87.9403 40.3594C90.3637 40.3594 92.3283 38.4076 92.3283 36C92.3283 33.5924 90.3637 31.6406 87.9403 31.6406C85.5169 31.6406 83.5524 33.5924 83.5524 36C83.5524 38.4076 85.5169 40.3594 87.9403 40.3594Z" fill="#0D0E14"/>
<path d="M86.1851 35.128C86.6698 35.128 87.0627 34.7377 87.0627 34.2562C87.0627 33.7746 86.6698 33.3843 86.1851 33.3843C85.7005 33.3843 85.3076 33.7746 85.3076 34.2562C85.3076 34.7377 85.7005 35.128 86.1851 35.128Z" fill="white"/>
</g>
<rect x="31.0919" y="0.5" width="197.068" height="71" rx="9.5" stroke="#A1AEBF"/>
<g clip-path="url(#clip1_8_110)">
<path d="M296.14 42.3636H303.772L284.867 23.2727H277.235L296.14 42.3636Z" fill="#728095"/>
<path d="M288.216 23.2727L307.432 41.4545V23.2727H302.232V29.013L296.165 23.2727L288.216 23.2727Z" fill="#4B5567"/>
<path d="M273.575 24.1819V42.3637H278.514V36.6384L284.277 42.3637H291.876L273.575 24.1819Z" fill="#A1AEBF"/>
<path d="M319.232 39.6285H323.903V42.3636H315.667V27.8181H319.232V39.6285Z" fill="#0D0E14"/>
<path d="M329.809 42.3636C328.688 42.3636 327.676 42.1234 326.774 41.6429C325.885 41.1625 325.181 40.4762 324.661 39.5841C324.156 38.6918 323.903 37.6486 323.903 36.4544C323.903 35.2741 324.162 34.2377 324.682 33.3456C325.202 32.4396 325.913 31.7464 326.815 31.266C327.717 30.7856 328.729 30.5454 329.85 30.5454C330.972 30.5454 331.983 30.7856 332.886 31.266C333.788 31.7464 334.499 32.4396 335.019 33.3456C335.539 34.2377 335.798 35.2741 335.798 36.4544C335.798 37.6349 335.532 38.6781 334.998 39.5841C334.479 40.4762 333.761 41.1625 332.845 41.6429C331.942 42.1234 330.931 42.3636 329.809 42.3636ZM329.809 39.3164C330.479 39.3164 331.047 39.0693 331.512 38.5752C331.99 38.081 332.23 37.3742 332.23 36.4544C332.23 35.5348 331.997 34.828 331.532 34.3338C331.081 33.8397 330.52 33.5926 329.85 33.5926C329.167 33.5926 328.599 33.8397 328.148 34.3338C327.697 34.8142 327.471 35.5212 327.471 36.4544C327.471 37.3742 327.69 38.081 328.128 38.5752C328.579 39.0693 329.14 39.3164 329.809 39.3164Z" fill="#0D0E14"/>
<path d="M340.767 30.5454C341.561 30.5454 342.254 30.7097 342.847 31.0383C343.453 31.3669 343.917 31.7983 344.24 32.3322V30.7097H347.694V42.1496C347.694 43.2039 347.485 44.1554 347.068 45.0043C346.664 45.8669 346.038 46.5516 345.19 47.0582C344.355 47.5648 343.311 47.8181 342.059 47.8181C340.39 47.8181 339.036 47.4142 338 46.6063C336.963 45.8122 336.371 44.7305 336.222 43.3613H339.636C339.743 43.7995 339.999 44.1417 340.403 44.3882C340.807 44.6483 341.305 44.7784 341.898 44.7784C342.611 44.7784 343.177 44.5663 343.594 44.1417C344.025 43.731 344.24 43.0669 344.24 42.1496V40.527C343.904 41.061 343.439 41.4991 342.847 41.8415C342.254 42.17 341.561 42.3344 340.767 42.3344C339.838 42.3344 338.996 42.0948 338.242 41.6155C337.488 41.1226 336.889 40.4312 336.445 39.5412C336.014 38.6375 335.798 37.5969 335.798 36.4194C335.798 35.2418 336.014 34.2081 336.445 33.3181C336.889 32.4281 337.488 31.7435 338.242 31.2642C338.996 30.785 339.838 30.5454 340.767 30.5454ZM344.24 36.4399C344.24 35.5636 343.998 34.8722 343.513 34.3655C343.042 33.8589 342.463 33.6056 341.776 33.6056C341.09 33.6056 340.504 33.8589 340.019 34.3655C339.548 34.8584 339.312 35.5431 339.312 36.4194C339.312 37.2957 339.548 37.9939 340.019 38.5143C340.504 39.0209 341.09 39.2741 341.776 39.2741C342.463 39.2741 343.042 39.0209 343.513 38.5143C343.998 38.0077 344.24 37.3162 344.24 36.4399Z" fill="#0D0E14"/>
<path d="M354.976 42.3636C353.941 42.3636 353.008 42.1234 352.174 41.6429C351.354 41.1625 350.704 40.4762 350.225 39.5841C349.758 38.6918 349.524 37.6486 349.524 36.4544C349.524 35.2741 349.764 34.2377 350.243 33.3456C350.723 32.4396 351.379 31.7464 352.212 31.266C353.045 30.7856 353.979 30.5454 355.014 30.5454C356.049 30.5454 356.983 30.7856 357.816 31.266C358.649 31.7464 359.306 32.4396 359.785 33.3456C360.265 34.2377 360.505 35.2741 360.505 36.4544C360.505 37.6349 360.258 38.6781 359.766 39.5841C359.287 40.4762 358.624 41.1625 357.778 41.6429C356.945 42.1234 356.011 42.3636 354.976 42.3636ZM354.976 39.3164C355.595 39.3164 356.119 39.0693 356.548 38.5752C356.99 38.081 357.21 37.3742 357.21 36.4544C357.21 35.5348 356.996 34.828 356.567 34.3338C356.15 33.8397 355.633 33.5926 355.014 33.5926C354.383 33.5926 353.86 33.8397 353.443 34.3338C353.026 34.8142 352.818 35.5212 352.818 36.4544C352.818 37.3742 353.02 38.081 353.424 38.5752C353.841 39.0693 354.358 39.3164 354.976 39.3164Z" fill="#0D0E14"/>
<path d="M363.719 29.7794C363.042 29.7794 362.486 29.6023 362.051 29.2482C361.63 28.8805 361.42 28.4311 361.42 27.8999C361.42 27.3551 361.63 26.9057 362.051 26.5516C362.486 26.1839 363.042 26 363.719 26C364.38 26 364.921 26.1839 365.341 26.5516C365.777 26.9057 365.995 27.3551 365.995 27.8999C365.995 28.4311 365.777 28.8805 365.341 29.2482C364.921 29.6023 364.38 29.7794 363.719 29.7794ZM365.634 30.9643V42.3636H361.78V30.9643H365.634Z" fill="#0D0E14"/>
<path d="M371.013 32.3516C371.324 31.8118 371.752 31.3758 372.299 31.0437C372.846 30.7115 373.486 30.5454 374.22 30.5454C375.077 30.5454 375.854 30.7876 376.55 31.272C377.246 31.7564 377.793 32.4485 378.19 33.3481C378.601 34.2477 378.806 35.2926 378.806 36.4829C378.806 37.6732 378.601 38.7251 378.19 39.6385C377.793 40.5381 377.246 41.237 376.55 41.7353C375.854 42.2197 375.077 42.4619 374.22 42.4619C373.499 42.4619 372.858 42.2958 372.299 41.9637C371.752 41.6315 371.324 41.2024 371.013 40.6765V47.8181H367.825V30.7115H371.013V32.3516ZM375.562 36.4829C375.562 35.5971 375.338 34.9051 374.891 34.4068C374.456 33.8947 373.915 33.6387 373.269 33.6387C372.635 33.6387 372.094 33.8947 371.647 34.4068C371.212 34.919 370.995 35.6179 370.995 36.5036C370.995 37.3894 371.212 38.0884 371.647 38.6005C372.094 39.1126 372.635 39.3686 373.269 39.3686C373.903 39.3686 374.443 39.1126 374.891 38.6005C375.338 38.0745 375.562 37.3687 375.562 36.4829Z" fill="#0D0E14"/>
<path d="M385.076 42.3636C384.062 42.3636 383.159 42.192 382.368 41.8488C381.575 41.5057 380.95 41.039 380.492 40.4488C380.033 39.8449 379.776 39.1722 379.721 38.431H383.243C383.284 38.8291 383.472 39.1517 383.806 39.3988C384.138 39.6458 384.549 39.7694 385.035 39.7694C385.479 39.7694 385.819 39.687 386.056 39.5223C386.306 39.3439 386.431 39.1173 386.431 38.8429C386.431 38.5134 386.257 38.2732 385.91 38.1222C385.562 37.9575 384.999 37.7791 384.222 37.5869C383.388 37.3947 382.693 37.1957 382.138 36.9898C381.582 36.7702 381.103 36.4339 380.7 35.9809C380.297 35.5143 380.096 34.8897 380.096 34.1073C380.096 33.4485 380.276 32.8514 380.637 32.316C381.012 31.767 381.555 31.3347 382.263 31.019C382.986 30.7033 383.84 30.5454 384.826 30.5454C386.285 30.5454 387.432 30.9023 388.265 31.616C389.113 32.3298 389.599 33.2769 389.724 34.4574H386.431C386.375 34.0593 386.194 33.7436 385.889 33.5102C385.597 33.2769 385.208 33.1603 384.722 33.1603C384.306 33.1603 383.986 33.2425 383.763 33.4073C383.541 33.5583 383.43 33.7711 383.43 34.0455C383.43 34.375 383.604 34.622 383.951 34.7867C384.312 34.9515 384.868 35.1162 385.619 35.2809C386.48 35.5005 387.182 35.7201 387.723 35.9398C388.265 36.1456 388.737 36.4888 389.14 36.9692C389.557 37.4359 389.772 38.0673 389.786 38.8634C389.786 39.536 389.592 40.14 389.202 40.6753C388.827 41.1969 388.279 41.6086 387.557 41.9106C386.848 42.2126 386.021 42.3636 385.076 42.3636Z" fill="#0D0E14"/>
<path d="M401.682 31.4546V42.2476H398.305V40.7777C397.962 41.2548 397.495 41.6416 396.903 41.9382C396.323 42.2219 395.678 42.3637 394.967 42.3637C394.124 42.3637 393.38 42.1832 392.735 41.8222C392.09 41.4482 391.59 40.913 391.234 40.2167C390.879 39.5203 390.701 38.7016 390.701 37.7602V31.4546H394.058V37.3153C394.058 38.0375 394.25 38.5984 394.631 38.9981C395.013 39.3979 395.526 39.5977 396.171 39.5977C396.83 39.5977 397.35 39.3979 397.732 38.9981C398.114 38.5984 398.305 38.0375 398.305 37.3153V31.4546H401.682Z" fill="#0D0E14"/>
<path d="M418.082 31.4546C419.501 31.4546 420.627 31.8608 421.458 32.6731C422.305 33.4855 422.728 34.6139 422.728 36.0581V42.3637H419.248V36.5029C419.248 35.8066 419.051 35.2715 418.655 34.8975C418.273 34.5107 417.741 34.3173 417.059 34.3173C416.377 34.3173 415.838 34.5107 415.442 34.8975C415.061 35.2715 414.87 35.8066 414.87 36.5029V42.3637H411.39V36.5029C411.39 35.8066 411.193 35.2715 410.797 34.8975C410.415 34.5107 409.883 34.3173 409.201 34.3173C408.518 34.3173 407.98 34.5107 407.584 34.8975C407.202 35.2715 407.011 35.8066 407.011 36.5029V42.3637H403.512V31.5706H407.011V32.9246C407.366 32.4733 407.829 32.1187 408.403 31.8608C408.976 31.59 409.623 31.4546 410.346 31.4546C411.206 31.4546 411.97 31.6287 412.639 31.9768C413.321 32.325 413.853 32.8215 414.235 33.4662C414.631 32.873 415.17 32.3895 415.852 32.0155C416.534 31.6416 417.278 31.4546 418.082 31.4546Z" fill="#0D0E14"/>
</g>
<rect x="249.16" y="0.5" width="197.068" height="71" rx="9.5" stroke="#A1AEBF"/>
<path d="M518.496 16L490.728 39.1397H509.478L501.976 55.9763L529.989 32.9908H510.461L518.496 16Z" fill="#728095"/>
<path d="M518.496 16L505.953 34.6819H524.59L501.976 55.9763L529.989 32.9908H510.461L518.496 16Z" fill="#4B5567"/>
<path d="M518.496 16L490.728 39.1397H509.478L501.976 55.9763L513.892 37.4486H496.272L518.496 16Z" fill="#A1AEBF"/>
<path d="M596.765 44.3402C595.529 44.3402 594.395 44.2311 593.362 44.0129C592.33 43.7803 591.392 43.4749 590.548 43.0968C589.72 42.7041 588.963 42.2606 588.28 41.7661L589.981 38.7995C591.174 39.6429 592.374 40.261 593.581 40.6536C594.788 41.0317 595.944 41.2208 597.049 41.2208C597.529 41.2208 598.031 41.1772 598.554 41.0899C599.078 40.9881 599.514 40.8209 599.863 40.5882C600.226 40.341 600.408 40.0065 600.408 39.5848C600.408 39.3375 600.321 39.134 600.146 38.974C599.987 38.7995 599.761 38.6613 599.47 38.5595C599.179 38.4577 598.838 38.3777 598.445 38.3196C598.067 38.2469 597.652 38.196 597.202 38.1669C596.765 38.1233 596.322 38.0796 595.871 38.036C594.853 37.9342 593.93 37.767 593.101 37.5343C592.272 37.3016 591.559 37.0035 590.963 36.6399C590.381 36.2618 589.93 35.8037 589.61 35.2657C589.291 34.7276 589.131 34.1095 589.131 33.4115C589.131 32.6262 589.32 31.9282 589.698 31.3174C590.09 30.7066 590.636 30.1976 591.334 29.7904C592.032 29.3687 592.832 29.0488 593.733 28.8306C594.649 28.6125 595.631 28.5034 596.678 28.5034C597.769 28.5034 598.75 28.6052 599.623 28.8088C600.51 28.9979 601.288 29.2596 601.957 29.5941C602.641 29.9286 603.208 30.2921 603.658 30.6848L601.87 33.2588C601.419 32.9243 600.895 32.6407 600.299 32.4081C599.717 32.1608 599.099 31.9718 598.445 31.8409C597.805 31.71 597.165 31.6446 596.525 31.6446C595.871 31.6446 595.282 31.7028 594.759 31.8191C594.25 31.9209 593.842 32.0809 593.537 32.299C593.246 32.5026 593.101 32.7716 593.101 33.1061C593.101 33.4115 593.224 33.666 593.472 33.8696C593.733 34.0586 594.068 34.2113 594.475 34.3277C594.882 34.4295 595.333 34.5095 595.827 34.5676C596.322 34.6258 596.802 34.684 597.267 34.7421C598.14 34.8294 598.998 34.9457 599.841 35.0911C600.685 35.222 601.441 35.4402 602.11 35.7456C602.793 36.0364 603.339 36.4581 603.746 37.0108C604.153 37.5488 604.357 38.2832 604.357 39.2139C604.357 40.2901 604.029 41.2135 603.375 41.9843C602.72 42.7405 601.819 43.3222 600.67 43.7294C599.536 44.1366 598.234 44.3402 596.765 44.3402Z" fill="#0D0E14"/>
<path d="M628.914 44.2992V40.9808H633.015V32.1245H628.914L628.841 28.9251H640.846V32.1245H636.723V40.9808H640.846V44.2992H628.914Z" fill="#0D0E14"/>
<path d="M535.565 41.7931L535.606 44.2992H550.985L550.944 40.9642H541.343L550.704 31.4316V28.9251H537.054V32.4351H544.774L535.565 41.7931Z" fill="#0D0E14"/>
<path d="M554.075 44.2992V28.9251H567.774V32.0154H557.675V34.8512H566.793V37.8615H557.675V41.0951H567.993V44.2992H554.075Z" fill="#0D0E14"/>
<path d="M619.487 44.2529C617.858 44.2529 616.441 43.933 615.234 43.2931C614.027 42.6532 613.089 41.7734 612.42 40.6536C611.751 39.5339 611.416 38.1669 611.416 36.7272V28.9251H615.168V36.7272C615.168 42.0001 623.915 42.0001 623.915 36.7272V28.9251H627.536V36.7272C627.536 38.1669 627.202 39.5339 626.533 40.6536C625.864 41.7734 624.926 42.6532 623.719 43.2931C622.512 43.933 621.101 44.2529 619.487 44.2529Z" fill="#0D0E14"/>
<path d="M570.682 36.7272V28.9251H574.434V36.7272C574.434 42.1743 583.181 42.1743 583.181 36.7272V28.9251H586.802V36.7272C586.802 46.8843 570.682 46.8162 570.682 36.7272Z" fill="#0D0E14"/>
<rect x="467.228" y="0.5" width="197.068" height="71" rx="9.5" stroke="#A1AEBF"/>
<path d="M736.609 33.0173C739.498 33.0173 740.148 34.2564 740.148 35.8019C740.148 37.4401 739.362 38.6137 736.621 38.6137C733.898 38.6137 733.111 37.5082 733.111 35.8019C733.111 34.1228 733.969 33.0173 736.609 33.0173Z" fill="#0D0E14"/>
<path d="M766.801 33.0173C769.69 33.0173 770.34 34.2564 770.34 35.8019C770.34 37.4401 769.553 38.6137 766.813 38.6137C764.091 38.6137 763.303 37.5082 763.303 35.8019C763.303 34.1228 764.161 33.0173 766.801 33.0173Z" fill="#0D0E14"/>
<path fill-rule="evenodd" clip-rule="evenodd" d="M711.03 51.9092V19.6792H857.027V51.9092H711.03ZM780.612 50.091H855.186V21.4974H780.612V50.091ZM736.623 41.3574C741.752 41.3574 743.908 39.1728 743.908 35.761C743.908 32.2937 741.479 30.2328 736.623 30.2328C731.841 30.2328 729.324 32.471 729.324 35.761C729.324 39.4737 731.964 41.3574 736.623 41.3574ZM718.791 30.4783V41.1937H729.143V38.3401H722.536V30.4783H718.791ZM755.494 41.1937L755.397 40.1556C754.144 41.0385 752.619 41.4634 751.084 41.3574C748.776 41.3574 746.853 40.6747 745.775 39.2965C745.064 38.2903 744.705 37.0825 744.752 35.8565C744.712 34.6562 745.083 33.4777 745.807 32.5119C746.898 31.1747 748.875 30.2874 751.819 30.2874C755.207 30.2874 757.197 31.311 758.053 33.031C758.237 33.4361 758.345 33.8707 758.372 34.3137H754.789C754.698 34.0445 754.53 33.8072 754.305 33.631C753.591 33.1637 752.739 32.9477 751.886 33.0174C751.385 32.9575 750.877 33.0031 750.396 33.1514C749.915 33.2997 749.471 33.5471 749.093 33.8774C748.665 34.4565 748.464 35.1694 748.527 35.8837C748.477 36.5653 748.662 37.2435 749.052 37.8083C749.433 38.1586 749.885 38.4238 750.379 38.5864C750.873 38.7488 751.396 38.8047 751.913 38.7501C752.941 38.8327 753.961 38.5197 754.761 37.8765C754.933 37.6645 755.051 37.4152 755.106 37.1492H751.25V34.8465H758.466V41.1937H755.494ZM766.815 41.3574C771.943 41.3574 774.1 39.1728 774.1 35.761C774.1 32.2937 771.668 30.2328 766.815 30.2328C762.033 30.2328 759.516 32.471 759.516 35.761C759.516 39.4737 762.157 41.3574 766.815 41.3574Z" fill="#0D0E14"/>
<path d="M786.921 41.1527V30.4373H789.59V41.1527H786.921Z" fill="#0D0E14"/>
<path d="M803.301 36.6755C802.624 37.5491 801.46 37.9482 799.818 37.9582C799.472 37.9582 794.882 37.9446 794.882 37.9446V41.1528H792.27V30.4373H799.819C800.424 30.3741 801.036 30.4375 801.614 30.6232C802.193 30.809 802.726 31.113 803.178 31.5155C803.774 32.2829 804.064 33.2398 803.993 34.2046C804.054 35.082 803.81 35.9538 803.301 36.6755ZM801.159 33.1818C800.882 32.7728 800.287 32.5455 799.279 32.5455H794.869V35.8073H799.25C800.328 35.8073 800.896 35.5891 801.159 35.1655C801.314 34.867 801.381 34.5309 801.352 34.1964C801.375 33.8475 801.309 33.4985 801.159 33.1818Z" fill="#0D0E14"/>
<path d="M811.693 41.3164C806.771 41.3164 805.265 39.4982 805.265 37.6991H808.057C808.057 38.5864 809.287 39.2555 811.817 39.2555C814.332 39.2555 814.996 38.8182 814.996 38.1082C814.996 37.3164 814.499 37.071 812.162 36.8119C811.702 36.771 810.449 36.621 809.979 36.5528C806.664 36.1837 805.388 35.2146 805.388 33.481C805.388 31.6519 807.255 30.2737 811.305 30.2737C815.701 30.2737 817.388 31.98 817.388 33.7546H814.626C814.626 32.8537 813.589 32.3346 811.142 32.3346C808.626 32.3346 808.088 32.6755 808.088 33.3446C808.088 34.041 808.64 34.2591 811.31 34.5728C811.918 34.6555 813.273 34.8055 813.646 34.8455C816.466 35.1319 817.738 36.1419 817.738 37.93C817.733 40.06 815.798 41.3164 811.693 41.3164Z" fill="#0D0E14"/>
<path d="M825.6 41.3027C821.993 41.3027 819.643 39.8963 819.643 36.9391V30.4373H822.282V36.9754C822.282 38.3273 823.403 39.2273 825.711 39.2273C827.798 39.2273 829.043 38.3818 829.043 36.9754V30.4373H831.656V37.1818C831.656 39.87 829.471 41.3027 825.6 41.3027Z" fill="#0D0E14"/>
<path d="M845.963 41.1527V34L842.576 41.1527H840.005L836.715 34V41.1527H834.229V30.4373H837.597L841.329 38.6L845.144 30.4373H848.459V41.1527H845.963Z" fill="#0D0E14"/>
<rect x="685.296" y="0.5" width="197.068" height="71" rx="9.5" stroke="#A1AEBF"/>
<path d="M1001.59 42.288H996.54V28.8619H1001.59V42.288ZM997.034 41.7975H1001.1V29.3524H997.034V41.7975ZM1008.63 42.288H1003.68V28.8619H1014.02C1015.51 28.7427 1016.98 29.1562 1018.18 30.0272C1018.7 30.4973 1019.1 31.0799 1019.36 31.7293C1019.61 32.3787 1019.71 33.0775 1019.64 33.7712C1019.72 34.9697 1019.33 36.1519 1018.57 37.0816C1017.66 38.1134 1016.16 38.6451 1014.09 38.6637C1013.57 38.6774 1009.67 38.6637 1008.63 38.6637L1008.63 42.288ZM1004.17 41.7975H1008.13V38.1684H1008.38C1008.43 38.1684 1013.49 38.1841 1014.08 38.1684C1016 38.1517 1017.39 37.6779 1018.2 36.753C1018.88 35.9118 1019.22 34.8473 1019.14 33.7702C1019.2 33.1487 1019.12 32.5216 1018.9 31.9377C1018.68 31.3537 1018.32 30.8285 1017.86 30.4029C1016.75 29.6085 1015.38 29.2356 1014.02 29.3514H1004.17L1004.17 41.7975ZM1012.98 35.6475H1008.1V31.9929H1013.01C1013.36 31.9451 1013.71 31.9854 1014.04 32.1101C1014.37 32.2348 1014.66 32.4397 1014.88 32.7059C1015.09 33.0462 1015.19 33.4406 1015.16 33.8369C1015.18 34.2048 1015.1 34.571 1014.93 34.8982C1014.7 35.1786 1014.39 35.3944 1014.05 35.525C1013.71 35.6555 1013.34 35.6964 1012.98 35.6436V35.6475ZM1008.59 35.1571H1012.98C1013.78 35.1571 1014.29 34.9894 1014.51 34.6441C1014.63 34.3932 1014.69 34.1152 1014.67 33.8369C1014.69 33.5446 1014.63 33.2524 1014.49 32.9953L1014.48 32.9865C1014.24 32.6432 1013.78 32.4833 1013.01 32.4833H1008.59V35.1571ZM1028.65 42.4861C1024.22 42.4861 1021.57 41.3925 1020.57 39.1433C1020.4 38.7089 1020.29 38.2564 1020.23 37.7956L1020.19 37.5131H1025.46L1025.5 37.7191C1025.54 37.9282 1025.63 38.1251 1025.76 38.2939C1025.97 38.544 1026.66 38.9638 1028.97 38.9638C1031.74 38.9638 1031.74 38.4803 1031.74 38.2203C1031.74 37.7819 1031.42 37.6318 1029.16 37.3925L1028.73 37.3523C1027.88 37.2728 1026.8 37.1718 1026.31 37.1296C1022.16 36.7569 1020.31 35.4769 1020.31 32.9806C1020.31 30.3587 1023.46 28.6648 1028.34 28.6648C1032.32 28.6648 1034.88 29.7065 1035.96 31.7633C1036.21 32.2418 1036.38 32.7599 1036.46 33.2954L1036.5 33.5711H1031.22L1031.19 33.3494C1031.17 33.1761 1031.1 33.0136 1030.98 32.8845C1030.78 32.6216 1030.16 32.1871 1028.22 32.1871C1025.84 32.1871 1025.52 32.4892 1025.52 32.8148C1025.52 33.2493 1026.27 33.4033 1028.68 33.6593C1029.68 33.7408 1031.29 33.9055 1031.85 33.9722C1035.32 34.3469 1036.87 35.5956 1036.87 38.0222C1036.88 40.0575 1035.45 42.4861 1028.65 42.4861ZM1020.77 38.0036C1020.82 38.3271 1020.9 38.6441 1021.02 38.9491C1021.94 40.9981 1024.44 41.9957 1028.65 41.9957C1032.18 41.9957 1036.38 41.3091 1036.38 38.0222C1036.38 35.8712 1035.01 34.806 1031.79 34.4597C1031.24 34.393 1029.64 34.2292 1028.64 34.1468C1026.07 33.8702 1025.03 33.7231 1025.03 32.8148C1025.03 31.8752 1026.15 31.6966 1028.22 31.6966C1029.86 31.6966 1030.92 31.9909 1031.37 32.5843C1031.5 32.7305 1031.59 32.8991 1031.65 33.0806H1035.92C1035.84 32.7013 1035.7 32.3349 1035.52 31.9909C1034.53 30.1086 1032.12 29.1552 1028.34 29.1552C1023.77 29.1552 1020.81 30.6569 1020.81 32.9806C1020.81 35.1973 1022.47 36.292 1026.36 36.6412C1026.85 36.6833 1027.92 36.7844 1028.78 36.8648L1029.21 36.905C1031.31 37.1247 1032.24 37.262 1032.24 38.2203C1032.24 39.2522 1031.04 39.4543 1028.97 39.4543C1027.06 39.4543 1025.85 39.1688 1025.38 38.6068C1025.24 38.4276 1025.13 38.2229 1025.06 38.0036H1020.77ZM1046.25 42.4694C1041.1 42.4694 1038.26 40.3988 1038.26 36.6382V28.8619H1043.24V36.6382C1043.24 37.928 1044.41 38.6676 1046.43 38.6676C1048.37 38.6676 1049.57 37.8957 1049.57 36.6549V28.8619H1054.5V37.0502C1054.51 40.494 1051.5 42.4694 1046.25 42.4694H1046.25ZM1038.75 29.3524V36.6382C1038.75 41.2855 1043.45 41.979 1046.25 41.979C1049.15 41.979 1054.02 41.3385 1054.02 37.0502V29.3524H1050.07V36.6549C1050.07 38.1752 1048.64 39.158 1046.44 39.158C1044.14 39.158 1042.76 38.2164 1042.76 36.6382V29.3524H1038.75ZM1075.42 42.288H1070.72V36.2263L1068.05 42.288H1063.94L1061.3 36.238V42.288H1056.57V28.8619H1062.79L1066.02 36.2645L1069.4 28.8619H1075.43L1075.42 42.288ZM1071.21 41.7975H1074.93V29.3524H1069.71L1066 37.4729L1062.46 29.3524H1057.06V41.7975H1060.8V33.8781L1064.26 41.8005H1067.71L1071.2 33.8898L1071.21 41.7975ZM932.841 29.1072H928.345V42.0428H940.769V38.599H932.841V29.1072ZM949.844 28.8129C944.105 28.8129 941.087 31.5152 941.087 35.4828C941.087 39.9653 944.255 42.2389 949.844 42.2389C955.997 42.2389 958.585 39.6024 958.585 35.4828C958.585 31.2994 955.665 28.8109 949.844 28.8109V28.8129ZM949.827 32.1743C950.218 32.1725 950.608 32.1951 950.996 32.242L945.97 37.2356C945.732 36.7011 945.616 36.1209 945.63 35.5367C945.63 33.5073 946.659 32.1724 949.827 32.1724V32.1743ZM949.844 38.9305C949.468 38.9322 949.091 38.9112 948.718 38.8677L953.753 33.8653C953.982 34.391 954.091 34.9603 954.074 35.5328C954.074 37.5073 953.126 38.9285 949.844 38.9285V38.9305ZM967.493 37.1649H972.12C972.052 37.484 971.91 37.7829 971.706 38.0379C970.746 38.8144 969.522 39.1922 968.289 39.0923C967.668 39.1583 967.04 39.091 966.448 38.8948C965.855 38.6987 965.312 38.3784 964.856 37.9555C964.388 37.2737 964.166 36.4549 964.225 35.6319C964.149 34.7694 964.391 33.909 964.905 33.2101C965.552 32.4843 966.647 32.1714 968.256 32.1714C969.28 32.0871 970.303 32.3484 971.159 32.9129C971.428 33.1258 971.63 33.4121 971.739 33.7368H976.031C976 33.2017 975.87 32.6768 975.649 32.188C974.621 30.1116 972.232 28.8757 968.169 28.8757C964.636 28.8757 962.264 29.9468 960.954 31.5623C960.089 32.7289 959.645 34.1512 959.693 35.5995C959.637 37.0806 960.07 38.5392 960.925 39.7534C962.22 41.4209 964.525 42.2409 967.295 42.2409C969.137 42.3685 970.966 41.856 972.47 40.7912L972.586 42.0428H976.151V34.3803H967.493V37.1649ZM986.27 28.81C980.532 28.81 977.513 31.5122 977.513 35.4798C977.513 39.9624 980.68 42.236 986.27 42.236C992.424 42.236 995.012 39.5994 995.012 35.4798C995.012 31.2994 992.092 28.8109 986.27 28.8109V28.81ZM986.254 32.1714C986.635 32.1703 987.015 32.1919 987.393 32.2361L982.386 37.213C982.156 36.6844 982.043 36.1126 982.057 35.5367C982.053 33.5073 983.086 32.1724 986.254 32.1724V32.1714ZM986.27 38.9275C985.884 38.9292 985.498 38.9068 985.114 38.8608L990.166 33.8408C990.404 34.3734 990.517 34.9524 990.499 35.5347C990.501 37.5073 989.557 38.9285 986.27 38.9285V38.9275Z" fill="#0D0E14"/>
<rect x="903.364" y="0.5" width="197.068" height="71" rx="9.5" stroke="#A1AEBF"/>
<g clip-path="url(#clip2_8_110)">
<path d="M1155.05 44.5089C1152.16 47.3812 1147.26 47.3698 1145.89 43.5416C1145.62 42.7921 1145.41 42.0214 1145.25 41.2351C1144.61 38.0244 1144.94 34.6965 1146.2 31.672C1147.46 28.6477 1149.6 26.0627 1152.34 24.244C1155.08 22.4253 1158.3 21.4546 1161.59 21.4546C1164.89 21.4546 1168.11 22.4253 1170.85 24.244C1173.59 26.0627 1175.72 28.6477 1176.98 31.6721C1178.24 34.6965 1178.57 38.0244 1177.93 41.2351C1177.77 42.0214 1177.56 42.7921 1177.29 43.5416C1175.92 47.3698 1171.03 47.3812 1168.14 44.5089L1163.67 40.075C1163.25 39.6514 1163.29 38.9528 1163.41 38.3652C1163.48 38.0081 1163.44 37.6379 1163.3 37.3014C1163.16 36.9649 1162.93 36.6773 1162.62 36.4751C1162.32 36.2728 1161.96 36.1648 1161.59 36.1648C1161.23 36.1648 1160.87 36.2728 1160.56 36.4751C1160.26 36.6773 1160.02 36.9649 1159.88 37.3014C1159.74 37.6379 1159.7 38.0081 1159.77 38.3652C1159.89 38.9528 1159.94 39.6514 1159.51 40.075L1155.05 44.5089Z" fill="#728095"/>
<path d="M1191.81 40.535H1196.28V43.1568H1188.39V29.2139H1191.81V40.535Z" fill="#0D0E14"/>
<path d="M1202.39 43.3157C1201.3 43.3157 1200.31 43.084 1199.43 42.6205C1198.57 42.1571 1197.88 41.495 1197.37 40.6344C1196.88 39.7737 1196.64 38.7674 1196.64 37.6153C1196.64 36.4766 1196.89 35.4769 1197.39 34.6162C1197.9 33.7423 1198.59 33.0736 1199.47 32.6102C1200.35 32.1468 1201.34 31.915 1202.43 31.915C1203.53 31.915 1204.51 32.1468 1205.39 32.6102C1206.27 33.0736 1206.96 33.7423 1207.47 34.6162C1207.98 35.4769 1208.23 36.4766 1208.23 37.6153C1208.23 38.7541 1207.97 39.7604 1207.45 40.6344C1206.94 41.495 1206.24 42.1571 1205.35 42.6205C1204.47 43.084 1203.49 43.3157 1202.39 43.3157ZM1202.39 40.3761C1203.05 40.3761 1203.6 40.1378 1204.05 39.6611C1204.52 39.1844 1204.75 38.5025 1204.75 37.6153C1204.75 36.7282 1204.53 36.0463 1204.07 35.5696C1203.63 35.0929 1203.09 34.8545 1202.43 34.8545C1201.77 34.8545 1201.21 35.0929 1200.77 35.5696C1200.33 36.033 1200.11 36.7149 1200.11 37.6153C1200.11 38.5025 1200.33 39.1844 1200.75 39.6611C1201.19 40.1378 1201.74 40.3761 1202.39 40.3761Z" fill="#0D0E14"/>
<path d="M1213.68 31.915C1214.47 31.915 1215.16 32.0739 1215.74 32.3917C1216.34 32.7095 1216.8 33.1266 1217.12 33.643V32.0739H1220.54V43.1369C1220.54 44.1565 1220.33 45.0768 1219.92 45.8976C1219.52 46.7319 1218.9 47.3939 1218.06 47.8838C1217.23 48.3738 1216.2 48.6188 1214.96 48.6188C1213.31 48.6188 1211.97 48.2282 1210.94 47.4469C1209.92 46.6789 1209.33 45.6328 1209.18 44.3087H1212.56C1212.67 44.7324 1212.92 45.0635 1213.32 45.3019C1213.72 45.5534 1214.22 45.6792 1214.8 45.6792C1215.51 45.6792 1216.07 45.4739 1216.48 45.0635C1216.91 44.6663 1217.12 44.0241 1217.12 43.1369V41.5679C1216.79 42.0842 1216.33 42.508 1215.74 42.839C1215.16 43.1568 1214.47 43.3157 1213.68 43.3157C1212.76 43.3157 1211.93 43.084 1211.18 42.6205C1210.44 42.1438 1209.84 41.4751 1209.4 40.6144C1208.98 39.7406 1208.76 38.7343 1208.76 37.5955C1208.76 36.4567 1208.98 35.4571 1209.4 34.5964C1209.84 33.7357 1210.44 33.0736 1211.18 32.6102C1211.93 32.1468 1212.76 31.915 1213.68 31.915ZM1217.12 37.6153C1217.12 36.7679 1216.88 36.0992 1216.4 35.6093C1215.94 35.1194 1215.36 34.8744 1214.68 34.8744C1214 34.8744 1213.42 35.1194 1212.94 35.6093C1212.48 36.086 1212.24 36.7481 1212.24 37.5955C1212.24 38.4429 1212.48 39.1182 1212.94 39.6214C1213.42 40.1113 1214 40.3563 1214.68 40.3563C1215.36 40.3563 1215.94 40.1113 1216.4 39.6214C1216.88 39.1314 1217.12 38.4628 1217.12 37.6153Z" fill="#0D0E14"/>
<path d="M1227.49 43.3157C1226.4 43.3157 1225.41 43.084 1224.53 42.6205C1223.67 42.1571 1222.98 41.495 1222.47 40.6344C1221.98 39.7737 1221.73 38.7674 1221.73 37.6153C1221.73 36.4766 1221.99 35.4769 1222.49 34.6162C1223 33.7423 1223.69 33.0736 1224.57 32.6102C1225.45 32.1468 1226.44 31.915 1227.53 31.915C1228.62 31.915 1229.61 32.1468 1230.49 32.6102C1231.37 33.0736 1232.06 33.7423 1232.57 34.6162C1233.08 35.4769 1233.33 36.4766 1233.33 37.6153C1233.33 38.7541 1233.07 39.7604 1232.55 40.6344C1232.04 41.495 1231.34 42.1571 1230.45 42.6205C1229.57 43.084 1228.58 43.3157 1227.49 43.3157ZM1227.49 40.3761C1228.14 40.3761 1228.7 40.1378 1229.15 39.6611C1229.62 39.1844 1229.85 38.5025 1229.85 37.6153C1229.85 36.7282 1229.62 36.0463 1229.17 35.5696C1228.73 35.0929 1228.18 34.8545 1227.53 34.8545C1226.86 34.8545 1226.31 35.0929 1225.87 35.5696C1225.43 36.033 1225.21 36.7149 1225.21 37.6153C1225.21 38.5025 1225.43 39.1844 1225.85 39.6611C1226.29 40.1378 1226.84 40.3761 1227.49 40.3761Z" fill="#0D0E14"/>
<path d="M1236.26 30.922C1235.66 30.922 1235.17 30.7498 1234.78 30.4056C1234.41 30.0481 1234.22 29.6111 1234.22 29.0947C1234.22 28.5651 1234.41 28.1281 1234.78 27.7838C1235.17 27.4263 1235.66 27.2476 1236.26 27.2476C1236.85 27.2476 1237.33 27.4263 1237.7 27.7838C1238.09 28.1281 1238.28 28.5651 1238.28 29.0947C1238.28 29.6111 1238.09 30.0481 1237.7 30.4056C1237.33 30.7498 1236.85 30.922 1236.26 30.922ZM1237.96 32.074V43.1568H1234.54V32.074H1237.96Z" fill="#0D0E14"/>
<path d="M1243.26 33.643C1243.59 33.1266 1244.05 32.7095 1244.64 32.3917C1245.22 32.0739 1245.91 31.915 1246.7 31.915C1247.62 31.915 1248.45 32.1468 1249.2 32.6102C1249.94 33.0736 1250.53 33.7357 1250.95 34.5964C1251.39 35.4571 1251.61 36.4567 1251.61 37.5955C1251.61 38.7343 1251.39 39.7406 1250.95 40.6144C1250.53 41.4751 1249.94 42.1438 1249.2 42.6205C1248.45 43.084 1247.62 43.3157 1246.7 43.3157C1245.92 43.3157 1245.24 43.1568 1244.64 42.839C1244.05 42.5212 1243.59 42.1107 1243.26 41.6076V48.44H1239.84V32.0739H1243.26V33.643ZM1248.14 37.5955C1248.14 36.7481 1247.9 36.086 1247.42 35.6093C1246.95 35.1194 1246.37 34.8744 1245.68 34.8744C1245 34.8744 1244.42 35.1194 1243.94 35.6093C1243.47 36.0992 1243.24 36.7679 1243.24 37.6153C1243.24 38.4628 1243.47 39.1314 1243.94 39.6214C1244.42 40.1113 1245 40.3563 1245.68 40.3563C1246.36 40.3563 1246.94 40.1113 1247.42 39.6214C1247.9 39.1182 1248.14 38.4429 1248.14 37.5955Z" fill="#0D0E14"/>
<path d="M1257.35 43.3157C1256.37 43.3157 1255.51 43.1501 1254.75 42.8192C1253.99 42.4881 1253.39 42.0379 1252.95 41.4685C1252.51 40.8859 1252.26 40.2371 1252.21 39.522H1255.59C1255.63 39.906 1255.81 40.2172 1256.13 40.4555C1256.45 40.6939 1256.84 40.8131 1257.31 40.8131C1257.73 40.8131 1258.06 40.7336 1258.29 40.5747C1258.53 40.4026 1258.65 40.1841 1258.65 39.9193C1258.65 39.6015 1258.48 39.3698 1258.15 39.2241C1257.81 39.0652 1257.27 38.8932 1256.53 38.7077C1255.73 38.5224 1255.06 38.3304 1254.53 38.1317C1253.99 37.9199 1253.53 37.5955 1253.15 37.1585C1252.76 36.7084 1252.57 36.1058 1252.57 35.3512C1252.57 34.7155 1252.74 34.1396 1253.09 33.6231C1253.45 33.0935 1253.97 32.6764 1254.65 32.3718C1255.34 32.0673 1256.16 31.915 1257.11 31.915C1258.51 31.915 1259.61 32.2593 1260.4 32.9478C1261.22 33.6364 1261.68 34.55 1261.8 35.6888H1258.65C1258.59 35.3048 1258.42 35.0003 1258.13 34.7751C1257.85 34.55 1257.47 34.4375 1257.01 34.4375C1256.61 34.4375 1256.3 34.5169 1256.09 34.6758C1255.87 34.8214 1255.77 35.0267 1255.77 35.2915C1255.77 35.6093 1255.93 35.8477 1256.27 36.0066C1256.61 36.1655 1257.15 36.3244 1257.87 36.4832C1258.69 36.6951 1259.37 36.907 1259.89 37.1188C1260.4 37.3174 1260.86 37.6484 1261.24 38.1119C1261.64 38.5621 1261.85 39.1711 1261.86 39.9392C1261.86 40.588 1261.68 41.1706 1261.3 41.687C1260.95 42.1902 1260.42 42.5874 1259.73 42.8787C1259.05 43.1701 1258.25 43.3157 1257.35 43.3157Z" fill="#0D0E14"/>
<path d="M1274.37 32.074V43.1568H1270.95V41.6473C1270.61 42.1372 1270.13 42.5345 1269.53 42.839C1268.95 43.1304 1268.29 43.276 1267.57 43.276C1266.72 43.276 1265.97 43.0906 1265.32 42.7198C1264.66 42.3359 1264.16 41.7863 1263.8 41.0714C1263.44 40.3563 1263.26 39.5155 1263.26 38.5488V32.074H1266.65V38.0921C1266.65 38.8336 1266.85 39.4095 1267.23 39.8201C1267.62 40.2305 1268.14 40.4358 1268.79 40.4358C1269.46 40.4358 1269.99 40.2305 1270.37 39.8201C1270.76 39.4095 1270.95 38.8336 1270.95 38.0921V32.074H1274.37Z" fill="#0D0E14"/>
<path d="M1290.46 31.9546C1291.85 31.9546 1292.95 32.3717 1293.76 33.2059C1294.59 34.04 1295 35.1986 1295 36.6816V43.1566H1291.6V37.1385C1291.6 36.4235 1291.41 35.8739 1291.02 35.49C1290.65 35.0927 1290.13 34.8941 1289.46 34.8941C1288.8 34.8941 1288.27 35.0927 1287.88 35.49C1287.51 35.8739 1287.32 36.4235 1287.32 37.1385V43.1566H1283.92V37.1385C1283.92 36.4235 1283.73 35.8739 1283.34 35.49C1282.97 35.0927 1282.45 34.8941 1281.79 34.8941C1281.12 34.8941 1280.59 35.0927 1280.21 35.49C1279.83 35.8739 1279.65 36.4235 1279.65 37.1385V43.1566H1276.23V32.0738H1279.65V33.4641C1279.99 33.0006 1280.45 32.6365 1281.01 32.3717C1281.57 32.0936 1282.2 31.9546 1282.9 31.9546C1283.74 31.9546 1284.49 32.1333 1285.14 32.4908C1285.81 32.8484 1286.33 33.3582 1286.7 34.0202C1287.09 33.4111 1287.62 32.9145 1288.28 32.5306C1288.95 32.1466 1289.68 31.9546 1290.46 31.9546Z" fill="#0D0E14"/>
</g>
<rect x="1121.43" y="0.5" width="197.068" height="71" rx="9.5" stroke="#A1AEBF"/>
<defs>
<clipPath id="clip0_8_110">
<rect width="150.068" height="40" fill="white" transform="translate(54.5919 16)"/>
</clipPath>
<clipPath id="clip1_8_110">
<rect width="150.068" height="40" fill="white" transform="translate(272.66 16)"/>
</clipPath>
<clipPath id="clip2_8_110">
<rect width="150.068" height="40" fill="white" transform="translate(1144.93 16)"/>
</clipPath>
</defs>
</svg>
