<svg width="1397" height="72" viewBox="0 0 1397 72" fill="none" xmlns="http://www.w3.org/2000/svg">
<path d="M48.862 44.9471L48.862 26.6393L58.0759 31.7248V39.9124L65.4471 44.0317L72.8182 39.9124V31.7248L82.0321 26.6393V44.9471L65.4471 54.101L48.862 44.9471Z" fill="#0D0E14"/>
<path fill-rule="evenodd" clip-rule="evenodd" d="M53.469 29.1822L48.862 26.6394L65.4471 17.4855L82.0321 26.6394L77.4252 29.1822V42.6587L65.4471 49.5242L53.469 42.6587L53.469 29.1822ZM76.9261 29.4577L72.8182 31.7249V31.6741L65.4471 27.5548L58.0759 31.6741V31.7249L53.968 29.4577V42.3771L65.4471 48.9565L76.9261 42.3771V29.4577Z" fill="#A1AEBF"/>
<path d="M90.8627 43.5003V28.1217H93.7816V40.8639H100.858V43.5003H90.8627Z" fill="#0D0E14"/>
<path d="M107.16 43.8079C106.069 43.8079 105.089 43.5882 104.219 43.1487C103.349 42.7094 102.664 42.0723 102.163 41.2375C101.661 40.4026 101.411 39.3993 101.411 38.2277V37.8761C101.411 36.7044 101.661 35.7011 102.163 34.8663C102.664 34.0315 103.349 33.3944 104.219 32.955C105.089 32.5155 106.069 32.2959 107.16 32.2959C108.251 32.2959 109.231 32.5155 110.101 32.955C110.971 33.3944 111.657 34.0315 112.158 34.8663C112.659 35.7011 112.91 36.7044 112.91 37.8761V38.2277C112.91 39.3993 112.659 40.4026 112.158 41.2375C111.657 42.0723 110.971 42.7094 110.101 43.1487C109.231 43.5882 108.251 43.8079 107.16 43.8079ZM107.16 41.3473C108.015 41.3473 108.723 41.0764 109.283 40.5344C109.843 39.9779 110.123 39.1869 110.123 38.1617V37.9421C110.123 36.9168 109.843 36.1332 109.283 35.5913C108.738 35.0348 108.03 34.7565 107.16 34.7565C106.305 34.7565 105.597 35.0348 105.037 35.5913C104.477 36.1332 104.197 36.9168 104.197 37.9421V38.1617C104.197 39.1869 104.477 39.9779 105.037 40.5344C105.597 41.0764 106.305 41.3473 107.16 41.3473Z" fill="#0D0E14"/>
<path d="M113.956 38.0958V37.7443C113.956 36.6019 114.184 35.6279 114.641 34.8224C115.098 34.0022 115.703 33.3797 116.454 32.955C117.221 32.5155 118.054 32.2959 118.953 32.2959C119.956 32.2959 120.715 32.4717 121.231 32.8232C121.747 33.1747 122.123 33.5409 122.359 33.9217H122.757V32.6034H125.499V45.4336C125.499 46.1805 125.278 46.7737 124.835 47.2132C124.393 47.6672 123.803 47.8942 123.066 47.8942H115.725V45.4776H122.093C122.506 45.4776 122.713 45.2578 122.713 44.8185V41.9844H122.314C122.167 42.2187 121.961 42.4604 121.695 42.7094C121.43 42.9437 121.076 43.1414 120.634 43.3026C120.192 43.4637 119.631 43.5443 118.953 43.5443C118.054 43.5443 117.221 43.3318 116.454 42.9071C115.703 42.4677 115.098 41.8452 114.641 41.0397C114.184 40.2195 113.956 39.2383 113.956 38.0958ZM119.749 41.1276C120.604 41.1276 121.319 40.8566 121.894 40.3147C122.469 39.7729 122.757 39.0112 122.757 38.03V37.8102C122.757 36.8142 122.469 36.0527 121.894 35.5254C121.334 34.9835 120.619 34.7125 119.749 34.7125C118.894 34.7125 118.179 34.9835 117.604 35.5254C117.029 36.0527 116.742 36.8142 116.742 37.8102V38.03C116.742 39.0112 117.029 39.7729 117.604 40.3147C118.179 40.8566 118.894 41.1276 119.749 41.1276Z" fill="#0D0E14"/>
<path d="M132.812 43.8079C131.721 43.8079 130.74 43.5882 129.871 43.1487C129.001 42.7094 128.315 42.0723 127.814 41.2375C127.313 40.4026 127.062 39.3993 127.062 38.2277V37.8761C127.062 36.7044 127.313 35.7011 127.814 34.8663C128.315 34.0315 129.001 33.3944 129.871 32.955C130.74 32.5155 131.721 32.2959 132.812 32.2959C133.903 32.2959 134.883 32.5155 135.753 32.955C136.623 33.3944 137.308 34.0315 137.809 34.8663C138.311 35.7011 138.561 36.7044 138.561 37.8761V38.2277C138.561 39.3993 138.311 40.4026 137.809 41.2375C137.308 42.0723 136.623 42.7094 135.753 43.1487C134.883 43.5882 133.903 43.8079 132.812 43.8079ZM132.812 41.3473C133.667 41.3473 134.374 41.0764 134.935 40.5344C135.495 39.9779 135.775 39.1869 135.775 38.1617V37.9421C135.775 36.9168 135.495 36.1332 134.935 35.5913C134.389 35.0348 133.682 34.7565 132.812 34.7565C131.957 34.7565 131.249 35.0348 130.689 35.5913C130.129 36.1332 129.849 36.9168 129.849 37.9421V38.1617C129.849 39.1869 130.129 39.9779 130.689 40.5344C131.249 41.0764 131.957 41.3473 132.812 41.3473Z" fill="#0D0E14"/>
<path d="M140.138 43.5003V32.6034H142.924V43.5003H140.138ZM141.531 31.3292C141.03 31.3292 140.602 31.1681 140.248 30.8459C139.909 30.5236 139.74 30.0989 139.74 29.5717C139.74 29.0444 139.909 28.6197 140.248 28.2974C140.602 27.9753 141.03 27.8141 141.531 27.8141C142.047 27.8141 142.475 27.9753 142.814 28.2974C143.153 28.6197 143.322 29.0444 143.322 29.5717C143.322 30.0989 143.153 30.5236 142.814 30.8459C142.475 31.1681 142.047 31.3292 141.531 31.3292Z" fill="#0D0E14"/>
<path d="M145.017 47.8942V32.6034H147.759V33.9217H148.157C148.407 33.4969 148.798 33.1234 149.329 32.8012C149.86 32.4643 150.619 32.2959 151.607 32.2959C152.491 32.2959 153.31 32.5155 154.061 32.955C154.813 33.3797 155.417 34.0095 155.874 34.8444C156.331 35.6792 156.56 36.6898 156.56 37.8761V38.2277C156.56 39.414 156.331 40.4246 155.874 41.2594C155.417 42.0943 154.813 42.7314 154.061 43.1708C153.31 43.5955 152.491 43.8079 151.607 43.8079C150.943 43.8079 150.383 43.7273 149.926 43.5662C149.483 43.4197 149.122 43.2293 148.843 42.995C148.577 42.746 148.363 42.497 148.201 42.2481H147.803V47.8942H145.017ZM150.766 41.3912C151.636 41.3912 152.351 41.1202 152.911 40.5783C153.486 40.0218 153.773 39.2162 153.773 38.1617V37.9421C153.773 36.8875 153.486 36.0892 152.911 35.5473C152.337 34.9908 151.621 34.7125 150.766 34.7125C149.911 34.7125 149.196 34.9908 148.621 35.5473C148.046 36.0892 147.759 36.8875 147.759 37.9421V38.1617C147.759 39.2162 148.046 40.0218 148.621 40.5783C149.196 41.1202 149.911 41.3912 150.766 41.3912Z" fill="#0D0E14"/>
<path d="M162.678 43.8079C161.248 43.8079 160.076 43.5003 159.162 42.8852C158.249 42.27 157.696 41.3912 157.503 40.2488L160.069 39.5898C160.172 40.1023 160.342 40.5052 160.577 40.7981C160.829 41.091 161.131 41.3033 161.485 41.4352C161.853 41.5523 162.251 41.611 162.678 41.611C163.327 41.611 163.806 41.501 164.116 41.2814C164.425 41.047 164.58 40.7614 164.58 40.4246C164.58 40.0877 164.433 39.8314 164.138 39.6556C163.844 39.4652 163.372 39.3115 162.723 39.1943L162.104 39.0844C161.337 38.9379 160.636 38.7402 160.003 38.4913C159.369 38.2277 158.86 37.8688 158.476 37.4148C158.094 36.9607 157.902 36.3748 157.902 35.6572C157.902 34.5734 158.3 33.7459 159.096 33.1747C159.892 32.5888 160.939 32.2959 162.236 32.2959C163.46 32.2959 164.477 32.5669 165.287 33.1088C166.099 33.6507 166.629 34.3611 166.88 35.2398L164.293 36.0307C164.175 35.4742 163.932 35.0786 163.563 34.8444C163.209 34.61 162.767 34.4928 162.236 34.4928C161.705 34.4928 161.3 34.588 161.02 34.7784C160.74 34.9542 160.6 35.2032 160.6 35.5254C160.6 35.8769 160.747 36.1405 161.042 36.3163C161.337 36.4774 161.735 36.6019 162.236 36.6898L162.855 36.7996C163.681 36.9461 164.425 37.1438 165.089 37.3928C165.767 37.6271 166.298 37.9713 166.681 38.4254C167.079 38.8648 167.279 39.4652 167.279 40.2269C167.279 41.3693 166.858 42.2554 166.017 42.8852C165.192 43.5003 164.079 43.8079 162.678 43.8079Z" fill="#0D0E14"/>
<path d="M172.904 43.676C172.049 43.676 171.297 43.4856 170.649 43.1049C170.015 42.7093 169.521 42.1674 169.167 41.4791C168.814 40.7907 168.636 39.9998 168.636 39.1064V32.6034H171.423V38.8867C171.423 39.7068 171.622 40.322 172.02 40.7321C172.432 41.1422 173.015 41.3472 173.767 41.3472C174.621 41.3472 175.285 41.0689 175.757 40.5124C176.229 39.9412 176.464 39.1503 176.464 38.1397V32.6034H179.251V43.5003H176.508V42.0722H176.111C175.934 42.4384 175.602 42.7972 175.116 43.1487C174.629 43.5003 173.891 43.676 172.904 43.676Z" fill="#0D0E14"/>
<path d="M181.357 43.5003V32.6034H184.098V33.7898H184.496C184.687 33.4236 185.005 33.1088 185.447 32.8451C185.889 32.5669 186.472 32.4277 187.194 32.4277C187.975 32.4277 188.602 32.5815 189.074 32.889C189.546 33.182 189.907 33.5701 190.158 34.0534H190.555C190.806 33.5848 191.16 33.1967 191.617 32.889C192.074 32.5815 192.722 32.4277 193.563 32.4277C194.241 32.4277 194.853 32.5742 195.398 32.8671C195.958 33.1453 196.401 33.5774 196.725 34.1633C197.064 34.7345 197.233 35.4594 197.233 36.3383V43.5003H194.447V36.536C194.447 35.9355 194.293 35.4888 193.983 35.1959C193.673 34.8883 193.238 34.7345 192.678 34.7345C192.045 34.7345 191.55 34.9396 191.196 35.3496C190.858 35.7451 190.688 36.3163 190.688 37.0633V43.5003H187.902V36.536C187.902 35.9355 187.747 35.4888 187.438 35.1959C187.128 34.8883 186.693 34.7345 186.132 34.7345C185.499 34.7345 185.005 34.9396 184.651 35.3496C184.312 35.7451 184.142 36.3163 184.142 37.0633V43.5003H181.357Z" fill="#0D0E14"/>
<rect x="24.5" y="0.5" width="197.068" height="71" rx="9.5" stroke="#A1AEBF"/>
<path d="M301.961 30.6332C302.363 30.6332 302.497 30.7773 302.497 31.1654V39.9472H307.039C307.43 39.9472 307.575 40.0914 307.575 40.4795V41.2556C307.575 41.6437 307.43 41.7879 307.039 41.7879H301.057C300.666 41.7879 300.51 41.6437 300.51 41.2556V31.1654C300.51 30.7773 300.666 30.6332 301.057 30.6332H301.961Z" fill="#0D0E14"/>
<path d="M311.537 34.503C311.537 31.9416 313.166 30.4004 316.001 30.4004C318.836 30.4004 320.466 31.9416 320.466 34.503V37.9182C320.466 40.4795 318.825 42.0208 316.001 42.0208C313.178 42.0208 311.537 40.4795 311.537 37.9182V34.503ZM318.591 34.503C318.591 33.0615 317.686 32.2854 316.057 32.2854C314.428 32.2854 313.535 33.0726 313.535 34.503V37.9403C313.535 39.3929 314.428 40.158 316.057 40.158C317.686 40.158 318.591 39.3596 318.591 37.9403V34.503Z" fill="#0D0E14"/>
<path d="M333.758 35.6784C334.194 35.6784 334.294 35.8225 334.294 36.2106V38.3174C334.306 38.8136 334.206 39.3062 334.001 39.7589C333.796 40.2118 333.492 40.6133 333.111 40.9342C332.164 41.6832 330.97 42.0547 329.763 41.9765C326.872 41.9765 325.298 40.4352 325.298 37.8738V34.4365C325.298 31.9084 326.928 30.3561 329.763 30.3561C331.995 30.3561 333.446 31.232 334.06 32.984C334.094 33.0498 334.112 33.1227 334.113 33.1968C334.114 33.2709 334.098 33.3443 334.066 33.411C334.033 33.4777 333.985 33.5361 333.926 33.5813C333.867 33.6264 333.798 33.6574 333.725 33.6714L332.854 33.9708C332.475 34.1039 332.318 34.0263 332.185 33.6382C332 33.1646 331.661 32.7656 331.223 32.5046C330.784 32.2436 330.27 32.1352 329.763 32.1967C328.122 32.1967 327.229 32.984 327.229 34.4143V37.9404C327.229 39.3929 328.133 40.158 329.763 40.158C331.392 40.158 332.397 39.4151 332.397 38.3285V37.5079H329.975C329.573 37.5079 329.428 37.3527 329.428 36.9646V36.2106C329.428 35.8225 329.573 35.6784 329.975 35.6784H333.758Z" fill="#0D0E14"/>
<path d="M338.903 34.503C338.903 31.9416 340.533 30.4004 343.368 30.4004C346.203 30.4004 347.832 31.9416 347.832 34.503V37.9182C347.832 40.4795 346.191 42.0208 343.368 42.0208C340.544 42.0208 338.903 40.4795 338.903 37.9182V34.503ZM345.946 34.503C345.946 33.0615 345.042 32.2854 343.423 32.2854C341.805 32.2854 340.89 33.0726 340.89 34.503V37.9403C340.89 39.3929 341.794 40.158 343.423 40.158C345.053 40.158 345.946 39.3596 345.946 37.9403V34.503Z" fill="#0D0E14"/>
<path d="M353.089 30.9547C353.089 30.7108 353.167 30.6332 353.412 30.6332H353.926C354.171 30.6332 354.227 30.7108 354.227 30.9547V41.4663C354.227 41.7102 354.227 41.7879 353.926 41.7879H353.412C353.167 41.7879 353.089 41.7102 353.089 41.4663V30.9547Z" fill="#0D0E14"/>
<path d="M364.394 30.6332C365.324 30.6332 366.215 31 366.873 31.653C367.53 32.3058 367.899 33.1914 367.899 34.1149C367.899 35.0383 367.53 35.9239 366.873 36.5768C366.215 37.2297 365.324 37.5965 364.394 37.5965H361.046V41.4663C361.046 41.7102 360.99 41.7879 360.756 41.7879H360.232C359.997 41.7879 359.908 41.7102 359.908 41.4663V30.9547C359.908 30.7108 359.997 30.6332 360.232 30.6332H364.394ZM364.294 36.4988C364.614 36.4988 364.93 36.4363 365.225 36.3149C365.52 36.1933 365.789 36.0153 366.014 35.7908C366.24 35.5664 366.42 35.2998 366.542 35.0067C366.664 34.7134 366.727 34.399 366.727 34.0816C366.727 33.7641 366.664 33.4498 366.542 33.1565C366.42 32.8633 366.24 32.5968 366.014 32.3724C365.789 32.1479 365.52 31.9699 365.225 31.8483C364.93 31.7269 364.614 31.6644 364.294 31.6644H360.946V36.4988H364.294Z" fill="#0D0E14"/>
<path d="M376.616 30.4115C377.477 30.317 378.347 30.5012 379.095 30.9366C379.842 31.3722 380.429 32.0357 380.768 32.8287C380.857 33.0061 380.768 33.1503 380.589 33.239L380.098 33.4607C379.897 33.5383 379.819 33.5273 379.696 33.3166C379.443 32.728 379.008 32.2346 378.455 31.9077C377.901 31.5808 377.257 31.4374 376.616 31.4981C374.73 31.4981 373.703 32.241 373.703 33.5716C373.692 33.9782 373.829 34.3752 374.09 34.689C374.35 35.0028 374.716 35.2124 375.12 35.2792C375.72 35.4737 376.343 35.5929 376.973 35.634C377.735 35.6744 378.488 35.8276 379.205 36.0886C379.755 36.2615 380.228 36.617 380.545 37.0955C380.862 37.5741 381.004 38.1465 380.946 38.7165C380.946 40.79 379.428 42.043 376.638 42.043C375.723 42.147 374.799 41.9363 374.022 41.446C373.244 40.9558 372.658 40.2154 372.363 39.3485C372.344 39.3091 372.333 39.2657 372.332 39.2216C372.331 39.1774 372.34 39.1338 372.358 39.0935C372.376 39.0533 372.403 39.0174 372.437 38.9887C372.471 38.9599 372.51 38.9389 372.553 38.9272L373.044 38.7498C373.083 38.734 373.124 38.7265 373.166 38.7276C373.208 38.7287 373.249 38.7385 373.287 38.7562C373.325 38.7739 373.358 38.7992 373.386 38.8306C373.413 38.862 373.434 38.8986 373.446 38.9383C373.696 39.5646 374.14 40.0958 374.714 40.4547C375.287 40.8135 375.962 40.9815 376.638 40.9341C378.747 40.9341 379.785 40.2023 379.785 38.7165C379.805 38.326 379.685 37.9411 379.445 37.6304C379.206 37.3198 378.864 37.1035 378.48 37.02C377.902 36.8489 377.307 36.7447 376.705 36.7096L375.5 36.5543C375.122 36.4748 374.75 36.3748 374.384 36.2549C374.022 36.1464 373.684 35.9694 373.39 35.7338C373.094 35.4675 372.861 35.1397 372.706 34.7737C372.552 34.4077 372.481 34.0125 372.497 33.616C372.575 31.6755 374.038 30.4115 376.616 30.4115Z" fill="#0D0E14"/>
<path d="M386.962 37.9957C387.009 38.7799 387.356 39.5165 387.932 40.055C388.508 40.5936 389.269 40.8934 390.059 40.8934C390.849 40.8934 391.61 40.5936 392.186 40.055C392.762 39.5165 393.108 38.7799 393.156 37.9957V30.9547C393.156 30.7108 393.234 30.6332 393.48 30.6332H393.993C394.239 30.6332 394.317 30.7108 394.317 30.9547V37.9846C394.317 40.5016 392.821 42.0207 390.064 42.0207C387.308 42.0207 385.812 40.5016 385.812 37.9846V30.9547C385.812 30.7108 385.89 30.6332 386.125 30.6332H386.649C386.884 30.6332 386.962 30.7108 386.962 30.9547V37.9957Z" fill="#0D0E14"/>
<path d="M409.719 30.6332C409.964 30.6332 410.042 30.7109 410.042 30.9548V41.4664C410.042 41.7103 409.964 41.7879 409.719 41.7879H409.25C409.016 41.7879 408.937 41.7103 408.937 41.4664V35.0685C408.937 34.1377 409.001 33.2078 409.127 32.2854H409.06C408.712 33.1288 408.305 33.9476 407.844 34.7359L405.444 38.9383C405.415 39.0112 405.364 39.0735 405.298 39.1171C405.232 39.1606 405.155 39.1833 405.076 39.1822H404.763C404.683 39.1826 404.605 39.1597 404.537 39.1165C404.47 39.0731 404.416 39.0112 404.384 38.9383L401.951 34.6915C401.519 33.9146 401.146 33.1066 400.835 32.2743H400.768C400.882 33.2051 400.942 34.1419 400.946 35.0796V41.4664C400.946 41.7103 400.868 41.7879 400.623 41.7879H400.187C399.942 41.7879 399.864 41.7103 399.864 41.4664V30.9548C399.864 30.7109 399.942 30.6332 400.187 30.6332H400.589C400.681 30.6248 400.773 30.6447 400.852 30.6903C400.933 30.736 400.996 30.8052 401.036 30.8883L404.942 37.7851L408.826 30.9548C408.949 30.7219 409.016 30.6887 409.261 30.6887L409.719 30.6332Z" fill="#0D0E14"/>
<path d="M282.106 40.1027V48.1194C282.106 48.4268 281.983 48.7215 281.764 48.9387C281.546 49.156 281.249 49.2781 280.94 49.2781C280.63 49.2781 280.334 49.156 280.115 48.9387C279.896 48.7215 279.773 48.4268 279.773 48.1194V40.1137C280.098 40.3494 280.487 40.4809 280.889 40.4907C281.327 40.5032 281.757 40.3662 282.106 40.1027ZM292.039 37.7852C291.743 37.7852 291.459 37.9021 291.25 38.11C291.041 38.3179 290.923 38.6 290.923 38.894V40.2912C290.923 40.5985 291.046 40.8932 291.265 41.1105C291.483 41.3278 291.78 41.4499 292.089 41.4499C292.399 41.4499 292.695 41.3278 292.914 41.1105C293.133 40.8932 293.255 40.5985 293.255 40.2912V38.9495C293.264 38.7905 293.238 38.6315 293.18 38.4833C293.121 38.3352 293.031 38.2013 292.915 38.0908C292.8 37.9804 292.662 37.8959 292.511 37.8431C292.359 37.7904 292.199 37.7707 292.039 37.7852ZM277.24 43.1408C276.838 43.1288 276.449 42.9976 276.124 42.7638V50.8027C276.124 51.1115 276.247 51.4077 276.467 51.626C276.687 51.8443 276.985 51.967 277.296 51.967C277.606 51.967 277.904 51.8443 278.124 51.626C278.344 51.4077 278.467 51.1115 278.467 50.8027V42.8193C278.103 43.0533 277.673 43.166 277.24 43.1408ZM288.401 35.3791C288.249 35.3716 288.098 35.3947 287.956 35.4471C287.814 35.4994 287.685 35.5799 287.575 35.6836C287.465 35.7874 287.378 35.9121 287.319 36.0504C287.259 36.1887 287.228 36.3376 287.229 36.4879V42.664C287.229 42.9728 287.352 43.269 287.572 43.4873C287.792 43.7056 288.09 43.8283 288.401 43.8283C288.711 43.8283 289.009 43.7056 289.229 43.4873C289.449 43.269 289.572 42.9728 289.572 42.664V36.5655C289.581 36.4055 289.555 36.2455 289.496 36.0965C289.436 35.9475 289.345 35.813 289.229 35.7023C289.112 35.5917 288.973 35.5074 288.82 35.4555C288.667 35.4035 288.505 35.385 288.345 35.4013L288.401 35.3791ZM284.695 37.752C284.275 37.7491 283.866 37.6175 283.523 37.375V45.4361C283.523 45.7449 283.647 46.041 283.866 46.2594C284.086 46.4777 284.384 46.6003 284.695 46.6003C285.006 46.6003 285.304 46.4777 285.524 46.2594C285.744 46.041 285.867 45.7449 285.867 45.4361V37.3861C285.513 37.6481 285.081 37.7847 284.639 37.7741L284.695 37.752ZM274.706 43.9281V21.408C274.703 21.1335 274.591 20.8713 274.395 20.6782C274.199 20.4851 273.933 20.3768 273.657 20.3768H273.412C273.135 20.3768 272.87 20.4851 272.674 20.6782C272.477 20.8713 272.365 21.1335 272.362 21.408V43.9281C272.362 44.2045 272.473 44.4696 272.67 44.6651C272.866 44.8606 273.133 44.9704 273.412 44.9704H273.657C273.935 44.9704 274.202 44.8606 274.399 44.6651C274.596 44.4696 274.706 44.2045 274.706 43.9281ZM277.362 42.287H277.117C276.839 42.287 276.572 42.1772 276.375 41.9818C276.178 41.7863 276.068 41.5212 276.068 41.2447V24.0914C276.071 23.8169 276.183 23.5546 276.379 23.3615C276.575 23.1684 276.841 23.0602 277.117 23.0602H277.362C277.639 23.0602 277.904 23.1684 278.1 23.3615C278.297 23.5546 278.409 23.8169 278.412 24.0914V41.2669C278.412 41.5433 278.301 41.8085 278.104 42.0039C277.908 42.1994 277.641 42.3092 277.362 42.3092V42.287ZM281.057 39.648H280.8C280.525 39.648 280.261 39.5394 280.066 39.346C279.871 39.1526 279.762 38.8904 279.762 38.6168V26.7525C279.761 26.6162 279.786 26.4809 279.838 26.3545C279.889 26.2281 279.966 26.1131 280.062 26.0162C280.159 25.9192 280.274 25.8423 280.4 25.7898C280.527 25.7373 280.663 25.7102 280.8 25.7102H281.057C281.333 25.7132 281.597 25.8243 281.791 26.0194C281.986 26.2146 282.095 26.478 282.095 26.7525V38.6168C282.095 38.8904 281.985 39.1526 281.791 39.346C281.596 39.5394 281.332 39.648 281.057 39.648ZM284.751 36.9314H284.517C284.24 36.9314 283.975 36.8232 283.779 36.6301C283.582 36.437 283.47 36.1748 283.467 35.9002V29.5135C283.458 29.3711 283.479 29.2284 283.527 29.0941C283.576 28.9599 283.652 28.837 283.75 28.7331C283.848 28.6291 283.967 28.5464 284.099 28.4898C284.231 28.4334 284.373 28.4043 284.517 28.4047H284.762C285.04 28.4047 285.307 28.5144 285.504 28.7099C285.701 28.9054 285.811 29.1705 285.811 29.4469V35.8781C285.813 36.0159 285.787 36.1526 285.735 36.2803C285.683 36.4081 285.606 36.5243 285.508 36.6223C285.41 36.7202 285.294 36.7979 285.166 36.8511C285.038 36.9042 284.901 36.9314 284.762 36.9314H284.751ZM288.456 34.5475H288.211C287.933 34.5475 287.666 34.4377 287.469 34.2422C287.272 34.0468 287.162 33.7816 287.162 33.5052V31.8531C287.165 31.5785 287.276 31.3163 287.473 31.1232C287.669 30.9301 287.934 30.8219 288.211 30.8219H288.456C288.733 30.8219 288.998 30.9301 289.194 31.1232C289.391 31.3163 289.503 31.5785 289.505 31.8531V33.5052C289.505 33.7797 289.397 34.0432 289.202 34.2384C289.008 34.4335 288.744 34.5446 288.467 34.5475H288.456Z" fill="#0D0E14"/>
<rect x="242.568" y="0.5" width="197.068" height="71" rx="9.5" stroke="#A1AEBF"/>
<path d="M535.102 44.8054C534.426 44.8424 533.757 44.6491 533.204 44.2569C532.973 44.0845 532.786 43.8581 532.662 43.5973C532.537 43.3364 532.477 43.049 532.488 42.7597V32.1654C532.482 32.1206 532.487 32.075 532.501 32.0323C532.516 31.9896 532.54 31.9508 532.572 31.9188C532.604 31.8868 532.642 31.8626 532.685 31.848C532.727 31.8332 532.773 31.8285 532.817 31.834H534.727C534.943 31.834 535.046 31.9483 535.046 32.1654V41.9369C535.046 42.3712 535.239 42.5883 535.637 42.5883C535.805 42.5953 535.974 42.5761 536.137 42.5312C536.364 42.5312 536.489 42.5997 536.501 42.8054L536.671 44.234C536.679 44.2757 536.679 44.3186 536.669 44.36C536.659 44.4012 536.641 44.4401 536.615 44.4736C536.589 44.5072 536.556 44.5348 536.519 44.5546C536.482 44.5744 536.441 44.5859 536.398 44.5883C535.98 44.7273 535.543 44.8005 535.102 44.8054Z" fill="#0D0E14"/>
<path d="M545.846 43.5826C544.886 44.3797 543.68 44.8157 542.435 44.8157C541.19 44.8157 539.984 44.3797 539.025 43.5826C538.181 42.7266 537.708 41.5703 537.708 40.3654C537.708 39.1605 538.181 38.0043 539.025 37.1483C539.986 36.3552 541.191 35.9219 542.435 35.9219C543.679 35.9219 544.884 36.3552 545.846 37.1483C546.67 38.0122 547.13 39.1628 547.13 40.3597C547.13 41.5566 546.67 42.7072 545.846 43.5711V43.5826ZM540.821 42.074C541.266 42.4796 541.846 42.7042 542.447 42.7042C543.048 42.7042 543.627 42.4796 544.072 42.074C544.475 41.6082 544.697 41.0115 544.697 40.394C544.697 39.7766 544.475 39.1799 544.072 38.714C543.627 38.3085 543.048 38.0838 542.447 38.0838C541.846 38.0838 541.266 38.3085 540.821 38.714C540.418 39.1799 540.196 39.7766 540.196 40.394C540.196 41.0115 540.418 41.6082 540.821 42.074Z" fill="#0D0E14"/>
<path d="M557.647 36.2111C557.863 36.2111 557.965 36.3254 557.965 36.5426V44.7368C557.985 45.29 557.882 45.8405 557.664 46.3485C557.445 46.8566 557.117 47.3094 556.703 47.674C555.784 48.462 554.602 48.8703 553.395 48.8168C552.305 48.8554 551.229 48.5562 550.314 47.9597C549.923 47.7018 549.589 47.3656 549.333 46.9725C549.077 46.5792 548.904 46.1373 548.824 45.674C548.824 45.4454 548.824 45.3426 549.131 45.3426H551.041C551.122 45.3453 551.201 45.3717 551.268 45.4183C551.334 45.465 551.386 45.5299 551.417 45.6054C551.54 45.9525 551.787 46.2415 552.11 46.4168C552.503 46.6208 552.941 46.723 553.383 46.714C553.65 46.7287 553.917 46.6898 554.169 46.5995C554.421 46.5093 554.652 46.3694 554.85 46.1883C555.03 45.9988 555.171 45.7744 555.262 45.529C555.354 45.2835 555.396 45.0218 555.384 44.7597V44.0397C554.7 44.5453 553.868 44.8068 553.02 44.7826C552.426 44.8043 551.834 44.7052 551.279 44.4911C550.724 44.277 550.218 43.9525 549.791 43.5368C548.971 42.6845 548.513 41.5453 548.513 40.3597C548.513 39.1742 548.971 38.035 549.791 37.1826C550.22 36.7707 550.727 36.4493 551.281 36.2373C551.836 36.0253 552.427 35.927 553.02 35.9483C553.893 35.9251 554.747 36.2035 555.441 36.7368V36.554C555.436 36.5102 555.44 36.4658 555.454 36.4239C555.468 36.3822 555.491 36.344 555.522 36.3123C555.552 36.2805 555.59 36.256 555.631 36.2405C555.672 36.225 555.716 36.2189 555.759 36.2226L557.647 36.2111ZM553.236 42.7483C553.528 42.7574 553.82 42.7018 554.089 42.5852C554.358 42.4687 554.598 42.2942 554.793 42.074C555.171 41.5834 555.376 40.9803 555.376 40.3597C555.376 39.7391 555.171 39.1362 554.793 38.6454C554.599 38.4283 554.36 38.2563 554.093 38.1418C553.826 38.0272 553.537 37.973 553.247 37.9826C552.951 37.9732 552.656 38.0286 552.383 38.1451C552.11 38.2615 551.866 38.4362 551.667 38.6568C551.248 39.1262 551.028 39.7412 551.053 40.3711C551.032 40.9949 551.248 41.6034 551.655 42.074C551.855 42.2941 552.099 42.4684 552.372 42.5847C552.645 42.7011 552.939 42.7568 553.236 42.7483Z" fill="#0D0E14"/>
<path d="M567.776 43.5824C566.815 44.3754 565.609 44.8088 564.366 44.8088C563.122 44.8088 561.916 44.3754 560.955 43.5824C560.13 42.7166 559.67 41.5641 559.67 40.3653C559.67 39.1665 560.13 38.014 560.955 37.1481C561.917 36.3572 563.122 35.925 564.366 35.925C565.609 35.925 566.814 36.3572 567.776 37.1481C568.6 38.012 569.06 39.1626 569.06 40.3596C569.06 41.5565 568.6 42.7071 567.776 43.571V43.5824ZM562.74 42.0738C562.958 42.2823 563.215 42.4452 563.496 42.553C563.777 42.6609 564.076 42.7118 564.377 42.7024C564.676 42.7102 564.973 42.6588 565.252 42.5509C565.531 42.443 565.786 42.2809 566.003 42.0738C566.399 41.6048 566.617 41.0094 566.617 40.3938C566.617 39.7783 566.399 39.1829 566.003 38.7138C565.786 38.5069 565.531 38.3447 565.252 38.2369C564.973 38.129 564.676 38.0775 564.377 38.0853C564.076 38.076 563.777 38.1268 563.496 38.2346C563.215 38.3425 562.958 38.5055 562.74 38.7138C562.343 39.1829 562.126 39.7783 562.126 40.3938C562.126 41.0094 562.343 41.6048 562.74 42.0738Z" fill="#0D0E14"/>
<path d="M573.165 34.2682C572.865 34.5326 572.479 34.6783 572.079 34.6783C571.68 34.6783 571.294 34.5326 570.994 34.2682C570.857 34.1389 570.749 33.983 570.675 33.8101C570.6 33.6372 570.562 33.4508 570.562 33.2625C570.562 33.0741 570.6 32.8878 570.675 32.7148C570.749 32.5419 570.857 32.386 570.994 32.2567C571.297 31.9989 571.682 31.8575 572.079 31.8575C572.477 31.8575 572.861 31.9989 573.165 32.2567C573.301 32.386 573.41 32.5419 573.484 32.7148C573.558 32.8878 573.596 33.0741 573.596 33.2625C573.596 33.4508 573.558 33.6372 573.484 33.8101C573.41 33.983 573.301 34.1389 573.165 34.2682ZM573.404 44.8053C572.728 44.8387 572.06 44.6458 571.505 44.2567C571.277 44.0819 571.095 43.8547 570.972 43.5942C570.849 43.3338 570.79 43.0476 570.8 42.7596V36.5425C570.795 36.4977 570.8 36.4521 570.814 36.4093C570.829 36.3666 570.853 36.3278 570.885 36.2958C570.917 36.2638 570.955 36.2396 570.998 36.225C571.04 36.2102 571.085 36.2055 571.13 36.211H573.04C573.256 36.211 573.358 36.3253 573.358 36.5425V41.9367C573.358 42.371 573.552 42.5882 573.938 42.5882C574.111 42.5945 574.283 42.5751 574.45 42.531C574.677 42.531 574.802 42.5996 574.814 42.8053L574.984 44.2339C574.992 44.2756 574.991 44.3185 574.982 44.3598C574.972 44.4011 574.954 44.4399 574.928 44.4734C574.902 44.507 574.869 44.5347 574.832 44.5545C574.795 44.5742 574.753 44.5858 574.711 44.5882C574.289 44.7279 573.848 44.8012 573.404 44.8053Z" fill="#0D0E14"/>
<path d="M582.01 35.9368C582.607 35.9132 583.202 36.0102 583.76 36.2222C584.319 36.4343 584.829 36.7569 585.261 37.1711C586.065 38.0385 586.512 39.1799 586.512 40.3654C586.512 41.5509 586.065 42.6924 585.261 43.5597C584.831 43.9776 584.322 44.3035 583.763 44.5175C583.204 44.7317 582.608 44.8296 582.01 44.8054C581.159 44.8245 580.324 44.5637 579.634 44.0625V48.1883C579.634 48.4054 579.52 48.5083 579.304 48.5083H577.394C577.351 48.5165 577.306 48.5139 577.263 48.5007C577.221 48.4875 577.182 48.4641 577.151 48.4326C577.12 48.4011 577.097 48.3624 577.083 48.3198C577.07 48.2773 577.068 48.2321 577.076 48.1883V38.8168C577.089 38.7252 577.081 38.6317 577.052 38.5437C577.023 38.4558 576.974 38.3758 576.909 38.3103C576.844 38.2448 576.764 38.1956 576.677 38.1664C576.589 38.1373 576.496 38.1292 576.405 38.1425H576.03C575.78 38.1425 575.655 38.0511 575.655 37.8683V36.5197C575.649 36.4363 575.672 36.3533 575.719 36.2847C575.767 36.216 575.836 36.1659 575.916 36.1425C576.309 35.9989 576.726 35.9292 577.144 35.9368C577.561 35.8997 577.98 35.9887 578.347 36.1923C578.713 36.3959 579.011 36.7049 579.202 37.0797C579.568 36.7073 580.006 36.414 580.489 36.2174C580.972 36.0209 581.489 35.9254 582.01 35.9368ZM580.236 42.074C580.439 42.287 580.683 42.4565 580.952 42.5723C581.222 42.688 581.512 42.7477 581.805 42.7477C582.098 42.7477 582.389 42.688 582.658 42.5723C582.928 42.4565 583.171 42.287 583.374 42.074C583.801 41.5952 584.025 40.9679 583.999 40.3254C584.029 39.6824 583.804 39.0536 583.374 38.5768C583.171 38.3639 582.928 38.1944 582.658 38.0787C582.389 37.9628 582.098 37.9031 581.805 37.9031C581.512 37.9031 581.222 37.9628 580.952 38.0787C580.683 38.1944 580.439 38.3639 580.236 38.5768C579.823 39.0621 579.607 39.6869 579.634 40.3254C579.611 40.9635 579.826 41.5871 580.236 42.074Z" fill="#0D0E14"/>
<path d="M591.878 44.8054C590.858 44.8476 589.846 44.6022 588.956 44.0969C588.6 43.8809 588.296 43.5868 588.067 43.2366C587.839 42.8865 587.692 42.4891 587.638 42.074C587.638 41.8454 587.717 41.7312 587.967 41.7312H589.638C589.718 41.7344 589.795 41.7594 589.861 41.8038C589.927 41.8482 589.98 41.91 590.014 41.9826C590.252 42.5997 590.878 42.9083 591.878 42.9083C592.227 42.9244 592.575 42.8537 592.89 42.7026C592.999 42.6532 593.092 42.575 593.16 42.4764C593.228 42.3778 593.269 42.2624 593.276 42.1426C593.276 41.8454 593.095 41.6397 592.731 41.5026C592.299 41.3582 591.853 41.2624 591.401 41.2169C590.865 41.1558 590.333 41.0604 589.809 40.9312C589.299 40.8153 588.836 40.5485 588.479 40.1654C588.268 39.9051 588.114 39.604 588.024 39.2809C587.934 38.9578 587.911 38.6195 587.957 38.2873C588.003 37.9549 588.117 37.6356 588.29 37.3493C588.464 37.0629 588.695 36.8156 588.968 36.6226C589.787 36.0979 590.749 35.8422 591.719 35.8912C592.658 35.8593 593.588 36.0929 594.402 36.5654C594.73 36.7523 595.012 37.0103 595.229 37.3207C595.445 37.6311 595.59 37.986 595.653 38.3597C595.653 38.5883 595.55 38.7026 595.346 38.7026H593.663C593.592 38.7068 593.522 38.6894 593.461 38.6528C593.4 38.6161 593.352 38.5617 593.322 38.4969C593.21 38.2262 592.998 38.0093 592.731 37.8912C592.429 37.7328 592.093 37.654 591.753 37.6626C591.42 37.6444 591.087 37.7113 590.787 37.8569C590.681 37.898 590.59 37.97 590.525 38.0637C590.46 38.1574 590.424 38.2685 590.423 38.3826C590.43 38.5389 590.487 38.6888 590.585 38.8101C590.684 38.9315 590.818 39.0179 590.969 39.0569C591.405 39.2224 591.859 39.3373 592.321 39.3997C592.853 39.4701 593.381 39.5693 593.902 39.6969C594.411 39.8129 594.875 40.0795 595.232 40.4626C595.423 40.6737 595.571 40.9206 595.666 41.1894C595.762 41.4581 595.804 41.7433 595.789 42.0283C595.799 42.4234 595.707 42.8142 595.521 43.1628C595.336 43.5113 595.064 43.8056 594.732 44.0169C593.882 44.5651 592.887 44.8401 591.878 44.8054Z" fill="#0D0E14"/>
<path d="M607.806 44.2339C607.813 44.2745 607.81 44.316 607.801 44.3559C607.791 44.3959 607.774 44.4333 607.749 44.4664C607.725 44.4994 607.694 44.5272 607.659 44.5481C607.624 44.569 607.585 44.5826 607.544 44.5882C607.129 44.7244 606.696 44.7977 606.26 44.8053C605.828 44.8504 605.391 44.7825 604.993 44.6083C604.594 44.4341 604.247 44.1595 603.986 43.8111C603.183 44.5051 602.144 44.8612 601.087 44.8053C600.596 44.8281 600.106 44.7473 599.647 44.5682C599.189 44.3891 598.773 44.1156 598.426 43.7653C598.082 43.3984 597.815 42.9652 597.641 42.492C597.467 42.0187 597.39 41.5151 597.415 41.0111V36.5425C597.415 36.3253 597.517 36.2111 597.733 36.2111H599.643C599.859 36.2111 599.961 36.3253 599.961 36.5425V40.6682C599.941 41.1823 600.115 41.6849 600.45 42.0739C600.617 42.2522 600.821 42.3923 601.046 42.485C601.271 42.5777 601.514 42.6207 601.758 42.6111C602.006 42.622 602.255 42.5833 602.49 42.4969C602.724 42.4106 602.939 42.2785 603.122 42.1082C603.295 41.9288 603.43 41.7155 603.517 41.4816C603.606 41.2476 603.645 40.998 603.633 40.7482V36.5425C603.633 36.3253 603.736 36.2111 603.952 36.2111H605.884C606.1 36.2111 606.203 36.3253 606.203 36.5425V41.9253C606.203 42.3711 606.396 42.5882 606.771 42.5882C606.947 42.5951 607.124 42.5759 607.294 42.5311C607.337 42.5189 607.383 42.5168 607.426 42.5248C607.47 42.5327 607.511 42.5505 607.548 42.5769C607.584 42.6033 607.614 42.6376 607.635 42.6771C607.656 42.7167 607.667 42.7605 607.669 42.8053L607.806 44.2339Z" fill="#0D0E14"/>
<path d="M625.871 44.2339C625.881 44.2748 625.882 44.3176 625.874 44.3589C625.865 44.4002 625.848 44.4393 625.823 44.4731C625.798 44.5069 625.766 44.5348 625.729 44.5547C625.692 44.5747 625.651 44.5861 625.609 44.5882C625.186 44.7263 624.746 44.7996 624.302 44.8053C623.625 44.8404 622.958 44.6474 622.403 44.2568C622.163 44.0894 621.969 43.8653 621.836 43.6042C621.703 43.343 621.636 43.0529 621.641 42.7596V40.0739C621.665 39.5614 621.495 39.0589 621.164 38.6682C621.005 38.4895 620.807 38.3487 620.588 38.2558C620.367 38.163 620.129 38.1204 619.891 38.131C619.676 38.1229 619.462 38.1639 619.264 38.251C619.068 38.3381 618.894 38.4691 618.754 38.6339C618.454 39.0169 618.3 39.4955 618.322 39.9825V44.1996C618.322 44.4167 618.219 44.531 618.003 44.531H616.082C616.038 44.5366 615.992 44.5318 615.95 44.5172C615.907 44.5025 615.868 44.4782 615.837 44.4462C615.805 44.4143 615.781 44.3755 615.766 44.3328C615.751 44.29 615.747 44.2445 615.752 44.1996V40.0739C615.777 39.567 615.619 39.0681 615.309 38.6682C615.17 38.5002 614.996 38.365 614.8 38.2722C614.604 38.1794 614.389 38.1312 614.172 38.131C613.94 38.1217 613.709 38.1616 613.493 38.2483C613.277 38.3349 613.083 38.4664 612.922 38.6339C612.596 39.0046 612.429 39.489 612.456 39.9825V44.1996C612.461 44.2445 612.457 44.29 612.442 44.3328C612.427 44.3755 612.403 44.4143 612.371 44.4462C612.34 44.4782 612.301 44.5025 612.259 44.5172C612.216 44.5318 612.17 44.5366 612.126 44.531H610.273C610.057 44.531 609.954 44.4167 609.954 44.1996V38.8168C609.968 38.7251 609.96 38.6316 609.93 38.5436C609.902 38.4557 609.853 38.3757 609.787 38.3102C609.722 38.2447 609.643 38.1955 609.555 38.1663C609.468 38.1372 609.375 38.1291 609.284 38.1425H608.908C608.658 38.1425 608.533 38.051 608.533 37.8682V36.5196C608.528 36.4362 608.55 36.3532 608.598 36.2846C608.646 36.2159 608.715 36.1658 608.795 36.1425C609.188 35.9988 609.604 35.9291 610.023 35.9367C610.424 35.9023 610.827 35.9828 611.186 36.1689C611.544 36.3549 611.842 36.6389 612.046 36.9882C612.429 36.6228 612.884 36.3407 613.381 36.1598C613.878 35.9789 614.406 35.903 614.934 35.9367C615.447 35.9116 615.957 36.0082 616.425 36.2187C616.894 36.4292 617.305 36.7476 617.628 37.1482C618.005 36.7371 618.467 36.4153 618.982 36.2057C619.497 35.9962 620.052 35.9044 620.607 35.9367C621.103 35.9134 621.598 35.9938 622.062 36.1729C622.526 36.3518 622.948 36.6255 623.301 36.9767C623.647 37.343 623.914 37.7761 624.088 38.2495C624.262 38.7229 624.339 39.227 624.313 39.731V41.9368C624.313 42.371 624.506 42.5882 624.87 42.5882C625.046 42.5964 625.223 42.5772 625.393 42.531C625.629 42.531 625.754 42.6225 625.768 42.8053L625.871 44.2339Z" fill="#0D0E14"/>
<path d="M492.56 34.7254C493.399 31.3365 495.342 28.327 498.079 26.1763C500.816 24.0256 504.19 22.8572 507.664 22.8572C511.138 22.8572 514.512 24.0256 517.249 26.1763C519.986 28.327 521.928 31.3365 522.767 34.7254H521.403C519.102 34.6913 516.847 35.3828 514.957 36.7025C514.848 36.782 514.734 36.8545 514.616 36.9197H514.457C514.339 36.8545 514.225 36.782 514.116 36.7025C512.208 35.4133 509.962 34.7247 507.664 34.7247C505.365 34.7247 503.119 35.4133 501.212 36.7025C501.103 36.782 500.989 36.8545 500.871 36.9197H500.712C500.594 36.8545 500.48 36.782 500.371 36.7025C498.48 35.3828 496.226 34.6913 493.925 34.7254H492.56ZM518.947 41.8911C519.648 41.3429 520.516 41.056 521.403 41.0797H523.233V37.4111H521.403C519.84 37.3921 518.313 37.8812 517.049 38.8054C516.337 39.3326 515.477 39.6171 514.593 39.6171C513.709 39.6171 512.849 39.3326 512.137 38.8054C510.841 37.8984 509.3 37.4121 507.721 37.4121C506.141 37.4121 504.6 37.8984 503.304 38.8054C502.592 39.3326 501.732 39.6171 500.848 39.6171C499.964 39.6171 499.104 39.3326 498.393 38.8054C497.113 37.8693 495.564 37.3797 493.981 37.4111H492.094V41.0797H493.925C494.812 41.056 495.68 41.3429 496.38 41.8911C497.674 42.7988 499.214 43.2854 500.791 43.2854C502.369 43.2854 503.909 42.7988 505.202 41.8911C505.904 41.3446 506.771 41.058 507.658 41.0797C508.546 41.0541 509.414 41.3412 510.114 41.8911C511.41 42.7982 512.951 43.2844 514.531 43.2844C516.11 43.2844 517.651 42.7982 518.947 41.8911ZM518.947 48.4511C519.648 47.9029 520.516 47.616 521.403 47.6397H523.233V43.9711H521.403C519.84 43.9521 518.313 44.4412 517.049 45.3654C516.337 45.8926 515.477 46.1771 514.593 46.1771C513.709 46.1771 512.849 45.8926 512.137 45.3654C510.841 44.4584 509.3 43.9723 507.721 43.9723C506.141 43.9723 504.6 44.4584 503.304 45.3654C502.592 45.8926 501.732 46.1771 500.848 46.1771C499.964 46.1771 499.104 45.8926 498.393 45.3654C497.113 44.4294 495.564 43.9397 493.981 43.9711H492.094V47.6397H493.925C494.812 47.616 495.68 47.9029 496.38 48.4511C497.674 49.3588 499.214 49.8454 500.791 49.8454C502.369 49.8454 503.909 49.3588 505.202 48.4511C505.904 47.9046 506.771 47.618 507.658 47.6397C508.546 47.6141 509.414 47.9012 510.114 48.4511C511.41 49.3582 512.951 49.8444 514.531 49.8444C516.11 49.8444 517.651 49.3582 518.947 48.4511Z" fill="#4B5567"/>
<rect x="460.636" y="0.5" width="197.068" height="71" rx="9.5" stroke="#A1AEBF"/>
<path d="M725.03 45.4629L705.521 32.0933C703.544 30.7385 704.216 27.9177 706.681 27.2543L727.416 21.6634C727.855 21.5059 728.325 21.4548 728.789 21.5143C729.252 21.5738 729.694 21.7421 730.078 22.0054C730.463 22.2686 730.778 22.6192 730.999 23.0279C731.22 23.4367 731.339 23.8919 731.348 24.3557L730.119 43.3151C729.973 45.5655 727.007 46.8176 725.03 45.4629Z" fill="#A1AEBF"/>
<path d="M718.842 48.7634L707.349 26.4333C707.086 25.9225 706.971 25.3495 707.015 24.7775C707.059 24.2055 707.261 23.6568 707.6 23.1918C707.938 22.7269 708.399 22.3637 708.931 22.1425C709.464 21.9212 710.048 21.8504 710.619 21.9379L731.919 25.2039C732.409 25.2791 732.874 25.4688 733.277 25.7576C733.679 26.0463 734.006 26.4258 734.232 26.8647C734.458 27.3037 734.576 27.7896 734.576 28.2826C734.575 28.7756 734.458 29.2615 734.232 29.7004L724.42 48.7645C724.156 49.2739 723.756 49.7013 723.264 49.9996C722.772 50.298 722.207 50.4557 721.631 50.4556C721.054 50.4555 720.489 50.2976 719.997 49.9991C719.505 49.7004 719.105 49.2729 718.842 48.7634Z" fill="#728095"/>
<path d="M731.296 25.1077L720.678 23.4796L707.641 26.9962L712.845 37.1095L725.03 45.4629C725.298 45.6452 725.594 45.7848 725.906 45.8767L730.534 36.8848L731.296 25.1077Z" fill="#0D0E14"/>
<path d="M785.077 27.7179C785.077 27.3258 785.194 26.9426 785.414 26.6165C785.633 26.2905 785.945 26.0364 786.309 25.8864C786.674 25.7363 787.075 25.6971 787.462 25.7736C787.849 25.8501 788.205 26.0389 788.484 26.3161C788.763 26.5934 788.953 26.9466 789.03 27.3312C789.107 27.7158 789.068 28.1144 788.916 28.4766C788.765 28.8389 788.51 29.1485 788.182 29.3663C787.853 29.5842 787.468 29.7004 787.073 29.7004C786.545 29.6951 786.041 29.4845 785.668 29.1139C785.295 28.7432 785.083 28.2421 785.077 27.7179ZM785.41 30.6695H788.737V41.6828H785.41V30.6695Z" fill="#0D0E14"/>
<path d="M803.102 36.1761C803.141 36.904 803.034 37.6324 802.788 38.3193C802.542 39.0061 802.163 39.638 801.67 40.1785C801.178 40.7189 800.583 41.1573 799.919 41.4686C799.256 41.7797 798.537 41.9576 797.804 41.9917C797.187 42.025 796.571 41.9217 796 41.6893C795.428 41.4568 794.916 41.1011 794.5 40.6477V46.0885H791.175V30.6694H794.5V31.7044C794.916 31.2512 795.428 30.8957 796 30.6634C796.571 30.4312 797.187 30.328 797.804 30.3615C798.537 30.3955 799.256 30.5732 799.919 30.8842C800.583 31.1954 801.178 31.6337 801.67 32.1741C802.163 32.7145 802.542 33.3462 802.788 34.0331C803.034 34.7199 803.141 35.4481 803.102 36.1761ZM799.776 36.1761C799.763 35.6604 799.598 35.1601 799.3 34.7376C799.002 34.3151 798.585 33.9893 798.102 33.801C797.619 33.6126 797.09 33.5701 796.583 33.6787C796.075 33.7873 795.611 34.0421 795.248 34.4114C794.886 34.7807 794.641 35.248 794.545 35.7548C794.448 36.2616 794.505 36.7855 794.706 37.2608C794.908 37.736 795.246 38.1416 795.679 38.4268C796.112 38.712 796.619 38.864 797.138 38.864C797.495 38.88 797.851 38.8208 798.183 38.6905C798.514 38.5601 798.815 38.3615 799.064 38.1077C799.313 37.8538 799.505 37.5505 799.628 37.2176C799.751 36.8847 799.802 36.5297 799.776 36.1761Z" fill="#0D0E14"/>
<path d="M813.367 38.3768C813.367 40.9103 811.149 41.9895 808.755 41.9895C807.787 42.0765 806.816 41.8731 805.966 41.4056C805.117 40.9382 804.428 40.2282 803.988 39.3675L806.87 37.7383C806.987 38.1362 807.238 38.482 807.581 38.718C807.924 38.9539 808.339 39.0657 808.755 39.0347C809.553 39.0347 809.951 38.7917 809.951 38.3519C809.951 37.1398 804.497 37.7793 804.497 33.9678C804.497 31.5672 806.536 30.3561 808.847 30.3561C809.714 30.3291 810.572 30.5334 811.332 30.9479C812.093 31.3623 812.727 31.9716 813.17 32.7124L810.333 34.2325C810.209 33.9434 810.001 33.697 809.737 33.5241C809.473 33.3511 809.164 33.2594 808.847 33.2602C808.271 33.2602 807.916 33.4762 807.916 33.8771C807.913 35.1411 813.367 34.3038 813.367 38.3768Z" fill="#0D0E14"/>
<path d="M825.521 30.6696V41.6828H822.195V40.6457C821.812 41.1026 821.323 41.4626 820.772 41.6962C820.222 41.9298 819.623 42.0304 819.024 41.9897C816.785 41.9897 814.879 40.4037 814.879 37.4294V30.6696H818.205V36.9476C818.176 37.2101 818.207 37.4756 818.293 37.7253C818.379 37.9751 818.518 38.2034 818.701 38.3942C818.885 38.585 819.108 38.7336 819.355 38.8299C819.603 38.9263 819.868 38.9678 820.134 38.9517C821.353 38.9517 822.2 38.2473 822.2 36.6829V30.6696H825.521Z" fill="#0D0E14"/>
<path d="M844.582 34.9197V41.6828H841.256V35.2071C841.256 34.1062 840.723 33.4007 839.66 33.4007C838.551 33.4007 837.931 34.1721 837.931 35.4718V41.6828H834.604V35.2071C834.604 34.1062 834.072 33.4007 833.008 33.4007C831.9 33.4007 831.279 34.1721 831.279 35.4718V41.6828H827.953V30.6695H831.284V31.6786C831.629 31.2293 832.081 30.8729 832.6 30.6421C833.119 30.4113 833.689 30.3134 834.255 30.3573C834.824 30.3297 835.392 30.449 835.9 30.7037C836.409 30.9583 836.843 31.3396 837.16 31.8104C837.528 31.3178 838.017 30.9261 838.579 30.672C839.141 30.4178 839.76 30.3096 840.375 30.3573C842.92 30.3616 844.582 32.1669 844.582 34.9197Z" fill="#0D0E14"/>
<path d="M847.399 30.6014C848.763 30.6014 849.868 29.5034 849.868 28.149C849.868 26.7945 848.763 25.6965 847.399 25.6965C846.036 25.6965 844.931 26.7945 844.931 28.149C844.931 29.5034 846.036 30.6014 847.399 30.6014Z" fill="#0D0E14"/>
<path d="M739.674 25.6036H743.001V41.6828H739.674V25.6036ZM744.884 36.1762C744.881 35.0215 745.222 33.8917 745.865 32.93C746.508 31.9681 747.424 31.2175 748.497 30.7731C749.569 30.3288 750.751 30.2106 751.891 30.4336C753.031 30.6567 754.079 31.2108 754.902 32.0261C755.725 32.8412 756.287 33.8806 756.515 35.0128C756.743 36.1451 756.628 37.319 756.184 38.3861C755.74 39.4532 754.987 40.3654 754.021 41.0073C753.055 41.6491 751.919 41.9918 750.757 41.9918C749.985 41.9999 749.219 41.8553 748.504 41.5661C747.789 41.277 747.139 40.8492 746.593 40.3078C746.046 39.7664 745.613 39.1221 745.32 38.4128C745.027 37.7034 744.879 36.943 744.884 36.1762ZM753.31 36.1762C753.297 35.678 753.136 35.1949 752.848 34.787C752.56 34.3792 752.158 34.0647 751.691 33.883C751.224 33.7014 750.713 33.6604 750.223 33.7656C749.733 33.8706 749.285 34.117 748.935 34.4737C748.585 34.8306 748.348 35.282 748.255 35.7715C748.162 36.2611 748.216 36.767 748.411 37.2262C748.606 37.6852 748.933 38.0771 749.35 38.3527C749.768 38.6283 750.258 38.7753 750.76 38.7756C751.103 38.7853 751.445 38.7241 751.763 38.5961C752.082 38.4682 752.37 38.276 752.61 38.0317C752.85 37.7876 753.037 37.4966 753.158 37.1773C753.279 36.8578 753.332 36.5169 753.314 36.1762H753.31ZM769.892 30.6663V41.1297C769.892 44.8299 766.988 46.3932 764.04 46.3932C763.002 46.471 761.963 46.2635 761.036 45.7933C760.109 45.3232 759.33 44.6086 758.785 43.728L761.622 42.0977C761.851 42.5573 762.216 42.9365 762.668 43.1846C763.12 43.4327 763.637 43.5378 764.151 43.486C764.479 43.5304 764.812 43.5012 765.127 43.4004C765.442 43.2996 765.73 43.13 765.97 42.9037C766.21 42.6776 766.396 42.4008 766.514 42.0937C766.632 41.7866 766.679 41.4571 766.652 41.1297V40.1163C766.262 40.5895 765.767 40.9655 765.204 41.2141C764.642 41.4626 764.029 41.5769 763.415 41.5478C761.951 41.5025 760.563 40.8933 759.544 39.849C758.525 38.8047 757.956 37.4075 757.956 35.9531C757.956 34.4986 758.525 33.1013 759.544 32.0571C760.563 31.0128 761.951 30.4035 763.415 30.3583C764.029 30.3291 764.642 30.4434 765.204 30.692C765.767 30.9406 766.262 31.3166 766.652 31.7899V30.6663H769.892ZM766.656 35.9525C766.678 35.4206 766.539 34.8943 766.258 34.4413C765.976 33.9883 765.565 33.6293 765.076 33.4105C764.588 33.1918 764.044 33.1232 763.516 33.2136C762.988 33.304 762.5 33.5493 762.113 33.9179C761.726 34.2865 761.459 34.7615 761.347 35.282C761.234 35.8025 761.28 36.3445 761.48 36.8386C761.68 37.3325 762.024 37.7558 762.468 38.054C762.912 38.3522 763.436 38.5116 763.971 38.5119C764.321 38.5363 764.671 38.4877 765.001 38.3694C765.33 38.2511 765.631 38.0656 765.884 37.8248C766.137 37.5841 766.336 37.2934 766.469 36.9716C766.602 36.6496 766.666 36.3036 766.656 35.9558V35.9525ZM771.776 36.1686C771.772 35.0139 772.114 33.8842 772.757 32.9224C773.4 31.9606 774.315 31.2099 775.388 30.7656C776.461 30.3212 777.642 30.203 778.782 30.4261C779.923 30.6491 780.971 31.2032 781.794 32.0185C782.617 32.8336 783.178 33.8731 783.406 35.0053C783.634 36.1375 783.519 37.3114 783.075 38.3785C782.631 39.4456 781.879 40.3579 780.913 40.9997C779.946 41.6416 778.81 41.9842 777.648 41.9842C776.877 41.9923 776.112 41.8479 775.397 41.5592C774.683 41.2707 774.033 40.8435 773.487 40.3029C772.94 39.7623 772.507 39.119 772.214 38.4104C771.92 37.7019 771.771 36.9424 771.776 36.1762V36.1686ZM780.201 36.1686C780.189 35.6702 780.028 35.1867 779.74 34.7784C779.452 34.3702 779.049 34.0555 778.582 33.8736C778.115 33.6917 777.604 33.6507 777.113 33.7558C776.623 33.8608 776.174 34.1074 775.824 34.4643C775.474 34.8214 775.237 35.2731 775.144 35.7629C775.051 36.2528 775.106 36.7592 775.301 37.2184C775.496 37.6778 775.823 38.0697 776.241 38.3455C776.659 38.6211 777.15 38.768 777.651 38.768C777.994 38.777 778.334 38.7157 778.652 38.5879C778.969 38.4601 779.257 38.2684 779.496 38.0251C779.735 37.7818 779.922 37.492 780.043 37.1738C780.165 36.8556 780.218 36.516 780.201 36.1762V36.1686Z" fill="#0D0E14"/>
<rect x="678.704" y="0.5" width="197.068" height="71" rx="9.5" stroke="#A1AEBF"/>
<path d="M965.165 28.8265H968.818V43.4999H965.165V28.8265ZM970.267 37.9596C970.267 34.3306 972.507 32.1652 975.965 32.1652C979.423 32.1652 981.664 34.3306 981.664 37.9596C981.664 41.5886 979.472 43.766 975.965 43.766C972.459 43.766 970.267 41.6491 970.267 37.9596ZM977.999 37.9596C977.999 35.9636 977.207 34.7902 975.965 34.7902C974.723 34.7902 973.944 35.9999 973.944 37.9596C973.944 39.9193 974.711 41.1048 975.965 41.1048C977.22 41.1048 977.999 39.9918 977.999 37.9717V37.9596ZM983.04 44.2136H986.546C986.713 44.582 986.995 44.8869 987.351 45.0831C987.706 45.2792 988.116 45.3562 988.519 45.3023C989.907 45.3023 990.638 44.5523 990.638 43.4636V41.4314H990.564C990.273 42.0542 989.801 42.5761 989.209 42.9298C988.616 43.2834 987.931 43.4525 987.24 43.4152C984.574 43.4152 982.808 41.3951 982.808 37.9233C982.808 34.4515 984.489 32.262 987.289 32.262C988.001 32.2343 988.704 32.4234 989.305 32.8038C989.906 33.1844 990.375 33.7382 990.65 34.391V32.3709H994.303V43.3789C994.303 46.0281 991.953 47.6733 988.482 47.6733C985.256 47.6733 983.247 46.2338 983.04 44.2257V44.2136ZM990.65 37.9475C990.65 36.1814 989.834 35.0685 988.543 35.0685C987.253 35.0685 986.461 36.1693 986.461 37.9475C986.461 39.7257 987.24 40.7298 988.543 40.7298C989.846 40.7298 990.65 39.7499 990.65 37.9596V37.9475ZM995.678 37.9475C995.678 34.3185 997.919 32.1531 1001.38 32.1531C1004.83 32.1531 1007.09 34.3185 1007.09 37.9475C1007.09 41.5765 1004.9 43.7539 1001.38 43.7539C997.858 43.7539 995.678 41.6491 995.678 37.9596V37.9475ZM1003.41 37.9475C1003.41 35.9515 1002.62 34.7781 1001.38 34.7781C1000.13 34.7781 999.416 35.9999 999.416 37.9717C999.416 39.9435 1000.18 41.1168 1001.43 41.1168C1002.67 41.1168 1003.41 39.9918 1003.41 37.9717V37.9475ZM1008.48 29.7338C1008.47 29.3674 1008.57 29.0064 1008.76 28.6966C1008.96 28.3868 1009.25 28.1422 1009.58 27.9937C1009.92 27.8452 1010.29 27.7995 1010.66 27.8625C1011.02 27.9255 1011.36 28.0942 1011.62 28.3474C1011.89 28.6005 1012.08 28.9267 1012.16 29.2845C1012.24 29.6423 1012.21 30.0156 1012.07 30.3573C1011.94 30.6987 1011.71 30.9932 1011.4 31.2031C1011.1 31.4129 1010.74 31.5289 1010.37 31.5362C1010.13 31.5529 1009.89 31.5191 1009.65 31.4371C1009.42 31.3551 1009.21 31.2266 1009.03 31.0596C1008.86 30.8927 1008.71 30.6908 1008.62 30.4667C1008.52 30.2428 1008.47 30.0015 1008.48 29.758V29.7338ZM1008.48 32.3951H1012.13V43.4999H1008.48V32.3951ZM1025.39 37.9475C1025.39 41.5765 1023.77 43.6451 1020.99 43.6451C1020.28 43.6904 1019.57 43.5176 1018.96 43.1498C1018.35 42.782 1017.87 42.237 1017.58 41.5886H1017.51V47.0564H1013.86V32.3709H1017.51V34.3548H1017.58C1017.86 33.6956 1018.33 33.1365 1018.94 32.7534C1019.54 32.3703 1020.25 32.1818 1020.97 32.2136C1023.77 32.262 1025.44 34.3427 1025.44 37.9717L1025.39 37.9475ZM1021.74 37.9475C1021.74 36.1814 1020.92 35.0564 1019.64 35.0564C1018.36 35.0564 1017.55 36.1935 1017.53 37.9475C1017.52 39.7015 1018.36 40.8265 1019.64 40.8265C1020.92 40.8265 1021.74 39.7257 1021.74 37.9717V37.9475ZM1031.66 32.141C1034.69 32.141 1036.53 33.5685 1036.61 35.8548H1033.29C1033.29 35.0685 1032.63 34.5725 1031.62 34.5725C1030.61 34.5725 1030.16 34.9596 1030.16 35.5281C1030.16 36.0967 1030.56 36.2781 1031.38 36.4475L1033.72 36.9193C1035.94 37.391 1036.89 38.2862 1036.89 39.9677C1036.89 42.266 1034.79 43.7418 1031.68 43.7418C1028.58 43.7418 1026.54 42.266 1026.39 40.0039H1029.91C1030.01 40.8265 1030.67 41.3104 1031.74 41.3104C1032.82 41.3104 1033.3 40.9596 1033.3 40.3789C1033.3 39.7983 1032.96 39.6773 1032.08 39.4959L1029.98 39.0483C1027.8 38.6007 1026.65 37.4515 1026.65 35.758C1026.68 33.5806 1028.64 32.1652 1031.66 32.1652V32.141ZM1049.08 43.4757H1045.56V41.4072H1045.49C1045.3 42.1016 1044.87 42.7095 1044.28 43.1299C1043.69 43.5501 1042.98 43.7576 1042.25 43.7177C1041.7 43.749 1041.14 43.6616 1040.62 43.4614C1040.11 43.2612 1039.64 42.953 1039.25 42.5573C1038.86 42.1618 1038.56 41.6879 1038.38 41.1681C1038.19 40.6483 1038.11 40.0946 1038.16 39.5443V32.3709H1041.81V38.7096C1041.81 40.0281 1042.5 40.7298 1043.63 40.7298C1043.89 40.7302 1044.16 40.6745 1044.4 40.566C1044.64 40.4575 1044.86 40.2987 1045.03 40.1006C1045.21 39.9023 1045.34 39.6692 1045.41 39.4169C1045.49 39.1644 1045.51 38.8985 1045.48 38.637V32.3709H1049.13L1049.08 43.4757ZM1050.85 32.3709H1054.38V34.512H1054.45C1054.65 33.8267 1055.06 33.2246 1055.64 32.8C1056.21 32.3754 1056.91 32.1521 1057.63 32.1652C1058.36 32.1073 1059.08 32.3239 1059.66 32.7723C1060.23 33.2206 1060.62 33.8675 1060.74 34.5846H1060.81C1061.03 33.8599 1061.49 33.2289 1062.11 32.7909C1062.73 32.3529 1063.48 32.1327 1064.24 32.1652C1064.74 32.1487 1065.23 32.2361 1065.69 32.4219C1066.15 32.6076 1066.57 32.8877 1066.91 33.2435C1067.26 33.5996 1067.52 34.0235 1067.69 34.4879C1067.86 34.9523 1067.93 35.447 1067.89 35.9394V43.4999H1064.24V36.9072C1064.24 35.6975 1063.69 35.141 1062.67 35.141C1062.44 35.1391 1062.22 35.1858 1062.01 35.278C1061.8 35.3702 1061.61 35.5056 1061.46 35.6754C1061.31 35.8451 1061.2 36.0449 1061.13 36.2616C1061.07 36.4783 1061.05 36.7067 1061.08 36.9314V43.4999H1057.61V36.8588C1057.61 35.7459 1057.06 35.141 1056.06 35.141C1055.83 35.1412 1055.6 35.1898 1055.39 35.2838C1055.18 35.3779 1054.99 35.5152 1054.84 35.6866C1054.69 35.858 1054.57 36.0598 1054.5 36.2786C1054.43 36.4973 1054.41 36.728 1054.44 36.9556V43.4999H1050.79L1050.85 32.3709Z" fill="#0D0E14"/>
<path d="M954.949 29.4921C954.33 28.0844 953.51 26.7726 952.514 25.5969C951.043 23.807 949.206 22.347 947.126 21.3129C945.046 20.2789 942.768 19.6944 940.444 19.5977C938.12 19.501 935.801 19.8945 933.641 20.7521C931.481 21.6098 929.528 22.9122 927.912 24.5737C926.295 26.2351 925.05 28.218 924.26 30.3917C923.47 32.5654 923.152 34.8807 923.328 37.1851C923.503 39.4897 924.168 41.7311 925.278 43.7619C926.389 45.7928 927.919 47.5671 929.769 48.9679C930.957 49.8847 932.268 50.63 933.666 51.1816C935.625 51.9792 937.722 52.39 939.839 52.3913C944.209 52.3817 948.398 50.6509 951.486 47.5783C954.574 44.5057 956.31 40.3421 956.313 36.0001C956.316 33.7604 955.852 31.5444 954.949 29.4921ZM939.827 22.9235C941.728 22.9233 943.607 23.3362 945.33 24.1332C944.91 24.3136 944.468 24.4397 944.015 24.5082C942.526 24.7224 941.146 25.4095 940.081 26.4669C939.017 27.5242 938.326 28.8952 938.11 30.3751C938.015 31.2051 937.635 31.9772 937.034 32.5613C936.433 33.1453 935.648 33.5053 934.81 33.5808C933.321 33.795 931.941 34.4821 930.876 35.5395C929.812 36.5969 929.12 37.9678 928.905 39.4477C928.832 40.2369 928.493 40.9785 927.943 41.5525C926.994 39.5606 926.568 37.3623 926.704 35.1627C926.84 32.963 927.534 30.8332 928.721 28.9715C929.908 27.11 931.55 25.577 933.494 24.5153C935.438 23.4536 937.621 22.8977 939.839 22.8993L939.827 22.9235ZM929.757 44.4679C929.903 44.3348 930.049 44.2138 930.196 44.0687C931.279 43.0253 931.974 41.648 932.168 40.1614C932.247 39.3258 932.622 38.5453 933.227 37.9598C933.81 37.3576 934.594 36.9876 935.431 36.9195C936.921 36.7052 938.301 36.0181 939.365 34.9608C940.429 33.9034 941.121 32.5325 941.337 31.0525C941.389 30.1786 941.767 29.3551 942.396 28.7421C942.993 28.1516 943.784 27.795 944.624 27.738C945.993 27.551 947.269 26.9465 948.277 26.0082C949.425 26.9542 950.397 28.0923 951.151 29.3711C951.104 29.4331 951.051 29.49 950.992 29.5404C950.411 30.1479 949.628 30.5261 948.788 30.605C947.297 30.8154 945.915 31.5013 944.85 32.5593C943.785 33.6174 943.095 34.9904 942.883 36.4719C942.797 37.3046 942.424 38.0823 941.827 38.6731C941.23 39.2641 940.446 39.6317 939.608 39.7138C938.114 39.9264 936.729 40.6121 935.658 41.669C934.588 42.7261 933.889 44.0978 933.666 45.5808C933.6 46.1719 933.396 46.7396 933.069 47.238C931.82 46.5011 930.701 45.5653 929.757 44.4679ZM939.827 49.1372C938.591 49.1385 937.362 48.9675 936.174 48.6292C936.58 47.8767 936.844 47.0567 936.953 46.2098C937.039 45.3789 937.41 44.6026 938.004 44.0121C938.599 43.4215 939.38 43.0527 940.216 42.9679C941.708 42.7561 943.091 42.07 944.158 41.0124C945.224 39.9549 945.918 38.5825 946.134 37.1009C946.219 36.27 946.591 35.4938 947.185 34.9032C947.779 34.3126 948.561 33.9438 949.397 33.859C950.52 33.714 951.59 33.2987 952.514 32.6493C953.028 34.5823 953.088 36.6063 952.692 38.5662C952.296 40.5261 951.453 42.3699 950.228 43.9559C949.003 45.5418 947.429 46.8281 945.625 47.7157C943.823 48.6034 941.839 49.069 939.827 49.0767V49.1372Z" fill="#0D0E14"/>
<rect x="896.772" y="0.5" width="197.068" height="71" rx="9.5" stroke="#A1AEBF"/>
<path d="M1165.79 16.9091C1163.39 16.9091 1161.01 17.3912 1158.79 18.3277C1156.57 19.2643 1154.55 20.637 1152.85 22.3675C1151.15 24.0981 1149.8 26.1525 1148.88 28.4136C1147.96 30.6746 1147.49 33.0981 1147.49 35.5454C1147.49 37.9927 1147.96 40.4162 1148.88 42.6773C1149.8 44.9384 1151.15 46.9927 1152.85 48.7233C1154.55 50.4539 1157.17 51.427 1159.39 52.3636C1161.61 53.3001 1163.39 54.1818 1165.79 54.1818V45.7306C1164.59 45.7306 1163.24 45.1047 1162.13 44.6363C1161.02 44.1681 1160.17 42.9996 1159.32 42.1344C1158.47 41.2691 1157.8 40.2419 1157.34 39.1114C1156.88 37.9808 1156.64 37.2237 1156.64 36C1156.64 34.7762 1156.88 33.11 1157.34 31.9795C1157.8 30.849 1158.47 29.8217 1159.32 28.9565C1160.17 28.0912 1161.18 27.4048 1162.29 26.9366C1163.4 26.4682 1164.59 26.2272 1165.79 26.2272V16.9091Z" fill="#0D0E14"/>
<path d="M1166.25 41.4545C1169.53 41.4545 1172.2 38.809 1172.2 35.5454C1172.2 32.2819 1169.53 29.6364 1166.25 29.6364C1162.96 29.6364 1160.3 32.2819 1160.3 35.5454C1160.3 38.809 1162.96 41.4545 1166.25 41.4545Z" fill="#0D0E14"/>
<path d="M1147.49 36C1147.49 38.3876 1147.98 40.752 1148.92 42.9579C1149.86 45.1638 1151.24 47.1681 1152.98 48.8565C1154.73 50.5448 1156.79 51.8841 1159.07 52.7978C1161.35 53.7115 1163.79 54.1818 1166.25 54.1818C1168.71 54.1818 1171.15 53.7115 1173.43 52.7978C1175.7 51.8841 1177.77 50.5448 1179.51 48.8565C1181.26 47.1681 1182.64 45.1638 1183.58 42.9579C1184.52 40.752 1185.01 38.3876 1185.01 36H1175.63C1175.63 37.1939 1175.39 38.376 1174.91 39.479C1174.44 40.5819 1173.75 41.5841 1172.88 42.4283C1172.01 43.2724 1170.98 43.942 1169.84 44.3989C1168.7 44.8558 1167.48 45.0909 1166.25 45.0909C1165.02 45.0909 1163.8 44.8558 1162.66 44.3989C1161.52 43.942 1160.49 43.2724 1159.62 42.4283C1158.75 41.5841 1158.06 40.5819 1157.58 39.479C1157.11 38.376 1156.87 37.1939 1156.87 36H1147.49Z" fill="#0D0E14"/>
<path d="M1172.2 36C1172.2 34.3123 1171.57 32.6937 1170.45 31.5003C1169.34 30.3068 1167.83 29.6364 1166.25 29.6364C1164.67 29.6364 1163.16 30.3068 1162.04 31.5003C1160.93 32.6937 1160.3 34.3123 1160.3 36H1166.25H1172.2Z" fill="#0D0E14"/>
<path d="M1195.07 28.7273H1192.33V41.4546H1195.07V28.7273Z" fill="#0D0E14"/>
<path d="M1195.99 36.9091C1195.99 39.7196 1198.16 41.4546 1201.02 41.4546C1203.89 41.4546 1206.05 39.7196 1206.05 36.9091C1206.05 34.0986 1203.89 32.3636 1201.02 32.3636C1198.16 32.3636 1195.99 34.0986 1195.99 36.9091ZM1198.43 36.9091C1198.43 35.2436 1199.51 34.272 1201.02 34.272C1202.53 34.272 1203.61 35.2436 1203.61 36.9091C1203.61 38.5746 1202.53 39.5462 1201.02 39.5462C1199.51 39.5462 1198.43 38.5746 1198.43 36.9091Z" fill="#0D0E14"/>
<path d="M1213.95 32.6098V33.7875H1213.77C1213.24 33.0317 1212.4 32.3636 1210.9 32.3636C1208.83 32.3636 1206.97 34.1216 1206.97 36.8287C1206.97 39.5359 1208.83 41.2938 1210.9 41.2938C1212.4 41.2938 1213.24 40.6082 1213.74 39.9227H1213.91V40.7665C1213.91 42.4541 1212.93 43.2275 1211.49 43.2275C1210.05 43.2275 1209.32 42.4541 1209.02 41.452L1207.04 42.3134C1207.49 43.6318 1208.83 45.0909 1211.53 45.0909C1214.3 45.0909 1216.12 43.6318 1216.12 40.8191V32.6098H1213.95ZM1211.56 39.3953C1210.19 39.3953 1209.18 38.4109 1209.18 36.8287C1209.18 35.2466 1210.19 34.2622 1211.56 34.2622C1212.93 34.2622 1213.95 35.2466 1213.95 36.8287C1213.95 38.4109 1212.93 39.3953 1211.56 39.3953Z" fill="#0D0E14"/>
<path d="M1217.95 36.9091C1217.95 39.7196 1220.12 41.4546 1222.98 41.4546C1225.85 41.4546 1228.01 39.7196 1228.01 36.9091C1228.01 34.0986 1225.85 32.3636 1222.98 32.3636C1220.12 32.3636 1217.95 34.0986 1217.95 36.9091ZM1220.39 36.9091C1220.39 35.2436 1221.47 34.272 1222.98 34.272C1224.49 34.272 1225.58 35.2436 1225.58 36.9091C1225.58 38.5746 1224.49 39.5462 1222.98 39.5462C1221.47 39.5462 1220.39 38.5746 1220.39 36.9091Z" fill="#0D0E14"/>
<path d="M1229.84 29.4336C1229.84 30.3915 1230.45 31.0489 1231.22 31.0489C1231.99 31.0489 1232.59 30.3915 1232.59 29.4336C1232.59 28.4757 1231.99 27.8182 1231.22 27.8182C1230.45 27.8182 1229.84 28.4757 1229.84 29.4336ZM1232.19 32.1383H1230.25V41.4546H1232.19V32.1383Z" fill="#0D0E14"/>
<path d="M1234.42 45.0909H1236.63V40.3585H1236.8C1237.29 41.0756 1238.14 41.7567 1239.64 41.7567C1241.71 41.7567 1243.57 39.9642 1243.57 37.0602C1243.57 34.1562 1241.71 32.3636 1239.64 32.3636C1238.14 32.3636 1237.29 33.0448 1236.77 33.8157H1236.59V32.6146H1234.42V45.0909ZM1238.98 39.8208C1237.61 39.8208 1236.59 38.8169 1236.59 37.0602C1236.59 35.3035 1237.61 34.2996 1238.98 34.2996C1240.35 34.2996 1241.36 35.3035 1241.36 37.0602C1241.36 38.8169 1240.35 39.8208 1238.98 39.8208Z" fill="#0D0E14"/>
<path d="M1245.74 35.0181C1245.74 36.7183 1247.26 37.3429 1249.2 37.6899L1249.69 37.7766C1250.84 37.9847 1251.36 38.245 1251.36 38.8002C1251.36 39.3554 1250.84 39.789 1249.76 39.789C1248.68 39.789 1247.81 39.3727 1247.56 38.1235L1245.4 38.644C1245.72 40.4483 1247.34 41.4546 1249.76 41.4546C1252.11 41.4546 1253.64 40.431 1253.64 38.6267C1253.64 36.8223 1252.07 36.3366 1249.98 35.955L1249.5 35.8682C1248.53 35.6947 1248.01 35.4518 1248.01 34.8793C1248.01 34.3588 1248.49 34.0292 1249.39 34.0292C1250.28 34.0292 1250.92 34.3761 1251.14 35.313L1253.26 34.7058C1252.82 33.3179 1251.46 32.3636 1249.39 32.3636C1247.19 32.3636 1245.74 33.3179 1245.74 35.0181Z" fill="#0D0E14"/>
<path d="M1263.7 41.3103V32.3636H1261.3V36.9813C1261.3 38.6407 1260.44 39.6147 1258.97 39.6147C1257.68 39.6147 1256.95 38.9474 1256.95 37.5945V32.3636H1254.55V37.7028C1254.55 39.9214 1256.02 41.4546 1258.23 41.4546C1259.97 41.4546 1260.77 40.7331 1261.15 39.9755H1261.34V41.3103H1263.7Z" fill="#0D0E14"/>
<path d="M1265.53 32.5079V41.4546H1267.94V36.1155C1267.94 34.8889 1268.55 34.2035 1269.66 34.2035C1270.62 34.2035 1271.19 34.7085 1271.19 35.6826V41.4546H1273.6V36.1155C1273.6 34.8889 1274.21 34.2035 1275.32 34.2035C1276.28 34.2035 1276.85 34.7085 1276.85 35.6826V41.4546H1279.26V35.5743C1279.26 33.4098 1277.84 32.3636 1276.08 32.3636C1274.54 32.3636 1273.83 33.013 1273.37 33.7706H1273.18C1272.74 32.9229 1271.95 32.3636 1270.58 32.3636C1269.2 32.3636 1268.46 32.9408 1268.09 33.6263H1267.9V32.5079H1265.53Z" fill="#0D0E14"/>
<rect x="1114.84" y="0.5" width="197.068" height="71" rx="9.5" stroke="#A1AEBF"/>
<path d="M1394.48 46.957C1398.04 43.8624 1400.22 39.6862 1400.22 35.091C1400.22 25.5515 1390.83 17.8182 1379.24 17.8182C1367.66 17.8182 1358.27 25.5515 1358.27 35.091C1358.27 44.6304 1367.66 52.3637 1379.24 52.3637C1382.53 52.3637 1385.64 51.7413 1388.41 50.6318C1391.66 52.5897 1395.65 53.9971 1400.05 53.7002C1397.72 53.1239 1395.72 50.7891 1394.48 46.957Z" fill="#728095"/>
<path d="M1394.62 35.0909C1394.62 42.12 1387.74 47.8182 1379.24 47.8182C1370.75 47.8182 1363.86 42.12 1363.86 35.0909C1363.86 28.0618 1370.75 22.3636 1379.24 22.3636C1387.74 22.3636 1394.62 28.0618 1394.62 35.0909Z" fill="#F6E05E"/>
<path d="M1389.03 35.0909C1389.03 39.6096 1384.65 43.2727 1379.24 43.2727C1373.84 43.2727 1369.46 39.6096 1369.46 35.0909C1369.46 30.5721 1373.84 26.9091 1379.24 26.9091C1384.65 26.9091 1389.03 30.5721 1389.03 35.0909Z" fill="#A1AEBF"/>
<rect x="1332.91" y="0.5" width="197.068" height="71" rx="9.5" stroke="#A1AEBF"/>
</svg>
